<?xml version="1.0" encoding="utf-8"?>
<!-- Generated by IcoMoon.io -->
<!DOCTYPE svg PUBLIC "-//W3C//DTD SVG 1.1//EN" "http://www.w3.org/Graphics/SVG/1.1/DTD/svg11.dtd">
<svg version="1.1" xmlns="http://www.w3.org/2000/svg" xmlns:xlink="http://www.w3.org/1999/xlink" width="32" height="32" viewBox="0 0 32 32">
<g id="icomoon-ignore">
	<line stroke-width="1" x1="" y1="" x2="" y2="" stroke="#449FDB" opacity=""></line>
</g>
	<path d="M30.667 15.333c0 1.992-0.387 3.896-1.163 5.704s-1.817 3.367-3.125 4.675-2.867 2.35-4.675 3.125-3.712 1.163-5.704 1.163-3.896-0.387-5.704-1.163-3.367-1.817-4.675-3.125-2.35-2.867-3.125-4.675-1.163-3.712-1.163-5.704 0.387-3.896 1.163-5.704 1.817-3.367 3.125-4.675 2.867-2.35 4.675-3.125 3.713-1.163 5.704-1.163 3.896 0.387 5.704 1.163 3.367 1.817 4.675 3.125 2.35 2.867 3.125 4.675 1.163 3.713 1.163 5.704zM28 15.333c0-1.625-0.317-3.179-0.954-4.662s-1.488-2.758-2.558-3.829-2.346-1.921-3.829-2.558-3.033-0.95-4.658-0.95-3.179 0.317-4.662 0.954-2.758 1.487-3.829 2.558-1.921 2.346-2.558 3.829-0.95 3.033-0.95 4.658 0.317 3.179 0.954 4.662 1.487 2.758 2.558 3.829 2.346 1.921 3.829 2.558 3.033 0.95 4.658 0.95 3.179-0.317 4.663-0.954 2.758-1.488 3.829-2.558 1.921-2.346 2.558-3.829 0.95-3.033 0.95-4.658zM14.667 23.375c0-0.738 0.596-1.333 1.333-1.333s1.333 0.596 1.333 1.333-0.596 1.333-1.333 1.333-1.333-0.596-1.333-1.333zM19.4 18.704c-0.113 0.050-0.225 0.104-0.329 0.167 0.113-0.054 0.221-0.108 0.329-0.167zM18.208 16.321c-0.113 0.054-0.221 0.108-0.329 0.167 0.108-0.054 0.221-0.108 0.329-0.167zM16.462 6.008c-3.15 0-5.729 2.563-5.746 5.713l-0.004 0.358h2.721l0.004-0.35c0.017-1.65 1.375-2.996 3.025-2.996 1.667 0 3.025 1.358 3.025 3.025 0 1.1-0.6 2.117-1.567 2.65-0.075 0.042-0.15 0.079-0.225 0.113l-0.021 0.012c-1.017 0.542-1.842 1.371-2.379 2.387-0.438 0.821-0.667 1.75-0.667 2.683v0.354h2.721v-0.354c0-1.1 0.6-2.117 1.567-2.65 0.075-0.042 0.15-0.079 0.225-0.113l0.021-0.012c1.017-0.542 1.842-1.371 2.379-2.387 0.438-0.821 0.667-1.75 0.667-2.683 0.004-3.171-2.575-5.75-5.746-5.75z" fill="#000000"></path>
</svg>
