<?xml version="1.0" encoding="utf-8"?>
<!-- Generated by IcoMoon.io -->
<!DOCTYPE svg PUBLIC "-//W3C//DTD SVG 1.1//EN" "http://www.w3.org/Graphics/SVG/1.1/DTD/svg11.dtd">
<svg version="1.1" xmlns="http://www.w3.org/2000/svg" xmlns:xlink="http://www.w3.org/1999/xlink" width="32" height="32" viewBox="0 0 32 32">
<g id="icomoon-ignore">
	<line stroke-width="1" x1="" y1="" x2="" y2="" stroke="#449FDB" opacity=""></line>
</g>
	<path d="M16 4q2.438 0 4.661 0.953t3.828 2.557 2.557 3.828 0.953 4.661-0.953 4.661-2.557 3.828-3.828 2.557-4.661 0.953-4.661-0.953-3.828-2.557-2.557-3.828-0.953-4.661 0.953-4.661 2.557-3.828 3.828-2.557 4.661-0.953zM16 6.667q-1.896 0-3.625 0.74t-2.979 1.99-1.99 2.979-0.74 3.625 0.74 3.625 1.99 2.979 2.979 1.99 3.625 0.74 3.625-0.74 2.979-1.99 1.99-2.979 0.74-3.625-0.74-3.625-1.99-2.979-2.979-1.99-3.625-0.74z" fill="#000000"></path>
</svg>
