<?xml version="1.0" encoding="utf-8"?>
<!-- Generated by IcoMoon.io -->
<!DOCTYPE svg PUBLIC "-//W3C//DTD SVG 1.1//EN" "http://www.w3.org/Graphics/SVG/1.1/DTD/svg11.dtd">
<svg version="1.1" xmlns="http://www.w3.org/2000/svg" xmlns:xlink="http://www.w3.org/1999/xlink" width="32" height="32" viewBox="0 0 32 32">
<g id="icomoon-ignore">
	<line stroke-width="1" x1="" y1="" x2="" y2="" stroke="#449FDB" opacity=""></line>
</g>
	<path d="M16 1.333q0.375 0 0.563 0.010 1.938 0.073 3.766 0.641t3.38 1.526 2.849 2.307 2.198 2.932 1.406 3.443 0.505 3.807-0.505 3.807-1.406 3.443-2.198 2.932-2.849 2.307-3.38 1.526-3.766 0.641q-0.188 0.010-0.563 0.010t-0.563-0.010q-1.938-0.073-3.766-0.641t-3.38-1.526-2.849-2.307-2.198-2.932-1.406-3.443-0.505-3.807 0.505-3.807 1.406-3.443 2.198-2.932 2.849-2.307 3.38-1.526 3.766-0.641q0.188-0.010 0.563-0.010zM9.385 17.333h-5.313q0.417 3.719 2.865 6.531t6.021 3.75q-1.354-2.052-2.359-4.651t-1.214-5.63zM19.948 17.333h-7.896q0.104 1.333 0.432 2.667t0.734 2.359 0.938 2.026 0.958 1.646 0.885 1.24q0.458-0.594 0.885-1.245t0.958-1.651 0.938-2.026 0.734-2.354 0.432-2.661zM12.958 4.385q-3.573 0.938-6.021 3.75t-2.865 6.531h5.313q0.365-5.438 3.573-10.281zM27.927 17.333h-5.302q-0.385 5.448-3.583 10.281 3.573-0.938 6.021-3.75t2.865-6.531zM16 4.729q-0.458 0.594-0.88 1.245t-0.958 1.651-0.943 2.026-0.734 2.354-0.432 2.661h7.896q-0.104-1.333-0.432-2.667t-0.734-2.359-0.938-2.026-0.958-1.646-0.885-1.24zM19.042 4.385q3.198 4.833 3.583 10.281h5.302q-0.417-3.719-2.865-6.531t-6.021-3.75z" fill="#000000"></path>
</svg>
