<?xml version="1.0" encoding="utf-8"?>
<!-- Generated by IcoMoon.io -->
<!DOCTYPE svg PUBLIC "-//W3C//DTD SVG 1.1//EN" "http://www.w3.org/Graphics/SVG/1.1/DTD/svg11.dtd">
<svg version="1.1" xmlns="http://www.w3.org/2000/svg" xmlns:xlink="http://www.w3.org/1999/xlink" width="32" height="32" viewBox="0 0 32 32">
<g id="icomoon-ignore">
	<line stroke-width="1" x1="" y1="" x2="" y2="" stroke="#449FDB" opacity=""></line>
</g>
	<path d="M16 1.333q2.99 0 5.703 1.161t4.677 3.125 3.125 4.677 1.161 5.703-1.161 5.703-3.125 4.677-4.677 3.125-5.703 1.161-5.703-1.161-4.677-3.125-3.125-4.677-1.161-5.703 1.161-5.703 3.125-4.677 4.677-3.125 5.703-1.161zM16 4q-2.438 0-4.661 0.953t-3.828 2.557-2.557 3.828-0.953 4.661 0.953 4.661 2.557 3.828 3.828 2.557 4.661 0.953 4.661-0.953 3.828-2.557 2.557-3.828 0.953-4.661-0.953-4.661-2.557-3.828-3.828-2.557-4.661-0.953zM16 6.667q0.552 0 0.943 0.391t0.391 0.943v7.448l3.615 3.604q0.385 0.385 0.385 0.948t-0.385 0.948-0.948 0.385-0.948-0.385l-4-4q-0.385-0.385-0.385-0.948v-8q0-0.552 0.391-0.943t0.943-0.391z" fill="#000000"></path>
</svg>
