<?xml version="1.0" encoding="utf-8"?>
<!-- Generated by IcoMoon.io -->
<!DOCTYPE svg PUBLIC "-//W3C//DTD SVG 1.1//EN" "http://www.w3.org/Graphics/SVG/1.1/DTD/svg11.dtd">
<svg version="1.1" xmlns="http://www.w3.org/2000/svg" xmlns:xlink="http://www.w3.org/1999/xlink" width="32" height="32" viewBox="0 0 32 32">
<g id="icomoon-ignore">
	<line stroke-width="1" x1="" y1="" x2="" y2="" stroke="#449FDB" opacity=""></line>
</g>
	<path d="M5.333 17.333q0-0.552 0.385-0.938l9.333-9.333q0.396-0.396 0.948-0.396t0.948 0.396l9.333 9.333q0.385 0.385 0.385 0.938t-0.391 0.943-0.943 0.391q-0.563 0-0.948-0.385l-8.385-8.385-8.385 8.385q-0.385 0.385-0.948 0.385-0.573 0-0.953-0.38t-0.38-0.953zM5.333 25.333q0-0.552 0.385-0.938l9.333-9.333q0.396-0.396 0.948-0.396t0.948 0.396l9.333 9.333q0.385 0.385 0.385 0.938t-0.391 0.943-0.943 0.391q-0.563 0-0.948-0.385l-8.385-8.385-8.385 8.385q-0.385 0.385-0.948 0.385-0.573 0-0.953-0.38t-0.38-0.953z" fill="#000000"></path>
</svg>
