<?xml version="1.0" encoding="utf-8"?>
<!-- Generated by IcoMoon.io -->
<!DOCTYPE svg PUBLIC "-//W3C//DTD SVG 1.1//EN" "http://www.w3.org/Graphics/SVG/1.1/DTD/svg11.dtd">
<svg version="1.1" xmlns="http://www.w3.org/2000/svg" xmlns:xlink="http://www.w3.org/1999/xlink" width="32" height="32" viewBox="0 0 32 32">
<g id="icomoon-ignore">
	<line stroke-width="1" x1="" y1="" x2="" y2="" stroke="#449FDB" opacity=""></line>
</g>
	<path d="M16 1.333q1.719 0 3.25 0.557t2.719 1.536 2.135 2.328 1.578 2.917 0.984 3.328q1.052 5.281 2.234 8.349t3.099 4.984h-12.229q0.229 0.656 0.229 1.333 0 1.656-1.172 2.828t-2.828 1.172-2.828-1.172-1.172-2.828q0-0.677 0.229-1.333h-12.229q1.917-1.917 3.099-4.984t2.234-8.349q0.354-1.76 0.984-3.328t1.578-2.917 2.135-2.328 2.719-1.536 3.25-0.557zM16 25.333q-0.552 0-0.943 0.391t-0.391 0.943 0.391 0.943 0.943 0.391 0.943-0.391 0.391-0.943-0.391-0.943-0.943-0.391zM16 4q-1.208 0-2.276 0.375t-1.828 0.958-1.411 1.401-1.057 1.589-0.734 1.646-0.484 1.443-0.26 1.109q-1.333 6.719-2.938 10.146h21.979q-1.604-3.427-2.938-10.146-0.104-0.542-0.26-1.109t-0.484-1.443-0.734-1.646-1.057-1.589-1.411-1.401-1.828-0.958-2.276-0.375z" fill="#000000"></path>
</svg>
