<?xml version="1.0" encoding="utf-8"?>
<!-- Generated by IcoMoon.io -->
<!DOCTYPE svg PUBLIC "-//W3C//DTD SVG 1.1//EN" "http://www.w3.org/Graphics/SVG/1.1/DTD/svg11.dtd">
<svg version="1.1" xmlns="http://www.w3.org/2000/svg" xmlns:xlink="http://www.w3.org/1999/xlink" width="32" height="32" viewBox="0 0 32 32">
<g id="icomoon-ignore">
	<line stroke-width="1" x1="" y1="" x2="" y2="" stroke="#449FDB" opacity=""></line>
</g>
	<path d="M16 0q1.656 0 2.828 1.172t1.172 2.828v0.688q0.49 0.167 1.177 0.479l0.479-0.479q1.177-1.177 2.833-1.177 1.646 0 2.823 1.177t1.177 2.823q0 1.656-1.177 2.833l-0.479 0.479q0.313 0.688 0.479 1.177h0.688q1.656 0 2.828 1.172t1.172 2.828-1.172 2.828-2.828 1.172h-0.688q-0.167 0.49-0.479 1.177l0.479 0.479q1.177 1.177 1.177 2.833 0 1.646-1.177 2.823t-2.823 1.177q-1.656 0-2.833-1.177l-0.479-0.479q-0.688 0.313-1.177 0.479v0.688q0 1.656-1.172 2.828t-2.828 1.172-2.828-1.172-1.172-2.828v-0.688q-0.49-0.167-1.177-0.479l-0.479 0.479q-1.177 1.177-2.823 1.177-1.656 0-2.828-1.177t-1.172-2.823q0-1.667 1.167-2.833l0.479-0.479q-0.313-0.688-0.479-1.177h-0.688q-1.656 0-2.828-1.172t-1.172-2.828 1.172-2.828 2.828-1.172h0.688q0.167-0.49 0.479-1.177l-0.479-0.479q-1.167-1.167-1.167-2.833 0-1.646 1.172-2.823t2.828-1.177q1.646 0 2.823 1.177l0.479 0.479q0.688-0.313 1.177-0.479v-0.688q0-1.656 1.172-2.828t2.828-1.172zM16 2.667q-0.552 0-0.943 0.391t-0.391 0.943v2.76q-2.333 0.333-4.26 1.76l-1.948-1.948q-0.396-0.396-0.938-0.396-0.552 0-0.943 0.391t-0.391 0.943q0 0.562 0.385 0.948l1.948 1.948q-1.427 1.927-1.76 4.26h-2.76q-0.552 0-0.943 0.391t-0.391 0.943 0.391 0.943 0.943 0.391h2.76q0.333 2.333 1.76 4.26l-1.948 1.948q-0.385 0.385-0.385 0.948 0 0.552 0.391 0.943t0.943 0.391q0.542 0 0.937-0.396l1.948-1.948q1.927 1.427 4.26 1.76v2.76q0 0.552 0.391 0.943t0.943 0.391 0.943-0.391 0.391-0.943v-2.76q2.333-0.333 4.26-1.76l1.948 1.948q0.396 0.396 0.948 0.396t0.943-0.391 0.391-0.943-0.396-0.948l-1.948-1.948q1.427-1.927 1.76-4.26h2.76q0.552 0 0.943-0.391t0.391-0.943-0.391-0.943-0.943-0.391h-2.76q-0.333-2.333-1.76-4.26l1.948-1.948q0.396-0.396 0.396-0.948t-0.391-0.943-0.943-0.391-0.948 0.396l-1.948 1.948q-1.927-1.427-4.26-1.76v-2.76q0-0.552-0.391-0.943t-0.943-0.391zM16 10.667q2.208 0 3.771 1.563t1.563 3.771-1.563 3.771-3.771 1.563-3.771-1.563-1.563-3.771 1.563-3.771 3.771-1.563zM16 13.333q-1.104 0-1.885 0.781t-0.781 1.885 0.781 1.885 1.885 0.781 1.885-0.781 0.781-1.885-0.781-1.885-1.885-0.781z" fill="#000000"></path>
</svg>
