<?xml version="1.0" encoding="utf-8"?>
<!-- Generated by IcoMoon.io -->
<!DOCTYPE svg PUBLIC "-//W3C//DTD SVG 1.1//EN" "http://www.w3.org/Graphics/SVG/1.1/DTD/svg11.dtd">
<svg version="1.1" xmlns="http://www.w3.org/2000/svg" xmlns:xlink="http://www.w3.org/1999/xlink" width="32" height="32" viewBox="0 0 32 32">
<g id="icomoon-ignore">
	<line stroke-width="1" x1="" y1="" x2="" y2="" stroke="#449FDB" opacity=""></line>
</g>
	<path d="M26.667 1.333q1.656 0 2.828 1.172t1.172 2.828v21.333q0 1.656-1.172 2.828t-2.828 1.172-2.828-1.172-1.172-2.828v-21.333q0-1.656 1.172-2.828t2.828-1.172zM5.333 17.333q1.656 0 2.828 1.172t1.172 2.828v5.333q0 1.656-1.172 2.828t-2.828 1.172-2.828-1.172-1.172-2.828v-5.333q0-1.656 1.172-2.828t2.828-1.172zM5.333 20q-0.552 0-0.943 0.391t-0.391 0.943v5.333q0 0.552 0.391 0.943t0.943 0.391 0.943-0.391 0.391-0.943v-5.333q0-0.552-0.391-0.943t-0.943-0.391zM16 9.333q1.656 0 2.828 1.172t1.172 2.828v13.333q0 1.656-1.172 2.828t-2.828 1.172-2.828-1.172-1.172-2.828v-13.333q0-1.656 1.172-2.828t2.828-1.172zM16 12q-0.552 0-0.943 0.391t-0.391 0.943v13.333q0 0.552 0.391 0.943t0.943 0.391 0.943-0.391 0.391-0.943v-13.333q0-0.552-0.391-0.943t-0.943-0.391zM26.667 4q-0.552 0-0.943 0.391t-0.391 0.943v21.333q0 0.552 0.391 0.943t0.943 0.391 0.943-0.391 0.391-0.943v-21.333q0-0.552-0.391-0.943t-0.943-0.391z" fill="#000000"></path>
</svg>
