<?xml version="1.0" encoding="utf-8"?>
<!-- Generated by IcoMoon.io -->
<!DOCTYPE svg PUBLIC "-//W3C//DTD SVG 1.1//EN" "http://www.w3.org/Graphics/SVG/1.1/DTD/svg11.dtd">
<svg version="1.1" xmlns="http://www.w3.org/2000/svg" xmlns:xlink="http://www.w3.org/1999/xlink" width="32" height="32" viewBox="0 0 32 32">
<g id="icomoon-ignore">
	<line stroke-width="1" x1="" y1="" x2="" y2="" stroke="#449FDB" opacity=""></line>
</g>
	<path d="M26.667 10.667c0 0.367-0.129 0.679-0.383 0.938l-9.333 9.333c-0.262 0.262-0.579 0.396-0.95 0.396s-0.683-0.133-0.95-0.396l-9.333-9.333c-0.258-0.258-0.383-0.571-0.383-0.938s0.129-0.683 0.392-0.942 0.575-0.392 0.942-0.392c0.375 0 0.692 0.129 0.95 0.383l8.383 8.388 8.383-8.383c0.258-0.258 0.575-0.383 0.95-0.383 0.383 0 0.7 0.125 0.954 0.379s0.379 0.567 0.379 0.95z" fill="#000000"></path>
</svg>
