<?xml version="1.0" encoding="utf-8"?>
<!-- Generated by IcoMoon.io -->
<!DOCTYPE svg PUBLIC "-//W3C//DTD SVG 1.1//EN" "http://www.w3.org/Graphics/SVG/1.1/DTD/svg11.dtd">
<svg version="1.1" xmlns="http://www.w3.org/2000/svg" xmlns:xlink="http://www.w3.org/1999/xlink" width="32" height="32" viewBox="0 0 32 32">
<g id="icomoon-ignore">
	<line stroke-width="1" x1="" y1="" x2="" y2="" stroke="#449FDB" opacity=""></line>
</g>
	<path d="M5.333 1.333h21.333q1.656 0 2.828 1.172t1.172 2.828v14.667q0 1.656-1.172 2.828t-2.828 1.172h-10.667l-9.333 6.667v-6.667h-1.333q-1.656 0-2.828-1.172t-1.172-2.828v-14.667q0-1.656 1.172-2.828t2.828-1.172zM26.667 4h-21.333q-0.552 0-0.943 0.391t-0.391 0.943v14.667q0 0.552 0.391 0.943t0.943 0.391h4v4.156l5.813-4.156h11.521q0.552 0 0.943-0.391t0.391-0.943v-14.667q0-0.552-0.391-0.943t-0.943-0.391z" fill="#000000"></path>
</svg>
