<?xml version="1.0" encoding="utf-8"?>
<!-- Generated by IcoMoon.io -->
<!DOCTYPE svg PUBLIC "-//W3C//DTD SVG 1.1//EN" "http://www.w3.org/Graphics/SVG/1.1/DTD/svg11.dtd">
<svg version="1.1" xmlns="http://www.w3.org/2000/svg" xmlns:xlink="http://www.w3.org/1999/xlink" width="32" height="32" viewBox="0 0 32 32">
<g id="icomoon-ignore">
	<line stroke-width="1" x1="" y1="" x2="" y2="" stroke="#449FDB" opacity=""></line>
</g>
	<path d="M30.667 15.333c0 1.992-0.387 3.896-1.163 5.704s-1.817 3.367-3.125 4.675-2.867 2.35-4.675 3.125-3.712 1.163-5.704 1.163-3.896-0.387-5.704-1.163-3.367-1.817-4.675-3.125-2.35-2.867-3.125-4.675-1.163-3.712-1.163-5.704 0.387-3.896 1.163-5.704 1.817-3.367 3.125-4.675 2.867-2.35 4.675-3.125 3.713-1.163 5.704-1.163 3.896 0.387 5.704 1.163 3.367 1.817 4.675 3.125 2.35 2.867 3.125 4.675 1.163 3.713 1.163 5.704zM28 15.333c0-1.625-0.317-3.179-0.954-4.662s-1.488-2.758-2.558-3.829-2.346-1.921-3.829-2.558-3.033-0.95-4.658-0.95-3.179 0.317-4.662 0.954-2.758 1.487-3.829 2.558-1.921 2.346-2.558 3.829-0.95 3.033-0.95 4.658 0.317 3.179 0.954 4.662 1.487 2.758 2.558 3.829 2.346 1.921 3.829 2.558 3.033 0.95 4.658 0.95 3.179-0.317 4.663-0.954 2.758-1.488 3.829-2.558 1.921-2.346 2.558-3.829 0.95-3.033 0.95-4.658zM17.333 12.708v10.667c0 0.367-0.129 0.683-0.392 0.942s-0.575 0.392-0.942 0.392-0.683-0.129-0.942-0.392-0.392-0.575-0.392-0.942v-10.667c0-0.367 0.129-0.683 0.392-0.942s0.575-0.392 0.942-0.392 0.683 0.129 0.942 0.392 0.392 0.575 0.392 0.942zM17.333 7.333c0 0.737-0.596 1.333-1.333 1.333s-1.333-0.596-1.333-1.333 0.596-1.333 1.333-1.333 1.333 0.596 1.333 1.333z" fill="#000000"></path>
</svg>
