<?xml version="1.0" encoding="UTF-8" standalone="no"?>
<!DOCTYPE svg PUBLIC "-//W3C//DTD SVG 1.1//EN" "http://www.w3.org/Graphics/SVG/1.1/DTD/svg11.dtd">
<svg version="1.1" xmlns="http://www.w3.org/2000/svg" xmlns:xlink="http://www.w3.org/1999/xlink" width="32" height="32" viewBox="0 0 32 32">
  <g
     id="icomoon-ignore">
    <line
       id="line4144"
       opacity=""
       stroke="#449FDB"
       y2=""
       x2=""
       y1=""
       x1=""
       stroke-width="1" />
  </g>
  <path
     style="fill:#000000"
     id="path4146"
     d="m 16,0.0109661 c -6.076,0 -11,4.9239999 -11,10.9999989 0,4.031 3.688,8.303 5.031,12.055 2.003,5.595 1.781,8.945 5.969,8.945 4.25,0 3.965,-3.334 5.969,-8.922 1.347,-3.76 5.031,-8.078 5.031,-12.078 C 27,4.934966 22.074,0.0109661 16,0.0109661 Z m 2.592,27.1759989 -4.958,0.619 c -0.177,-0.512 -0.367,-1.111 -0.598,-1.893 -0.003,-0.01 -0.007,-0.021 -0.009,-0.031 l 6.188,-0.773 c -0.088,0.295 -0.182,0.605 -0.264,0.883 -0.131,0.449 -0.248,0.839 -0.359,1.195 z m -5.856,-2.268 c -0.182,-0.602 -0.387,-1.236 -0.615,-1.908 l 7.766,0 c -0.123,0.359 -0.246,0.719 -0.352,1.059 l -6.799,0.849 z m 3.264,5.092 c -1.013,0 -1.479,-0.117 -1.997,-1.25 l 4.238,-0.531 c -0.614,1.654 -1.061,1.781 -2.241,1.781 z m 4.672,-9 -9.333,0 c -0.498,-1.08 -1.096,-2.16 -1.686,-3.217 -1.305,-2.335 -2.653,-4.75 -2.653,-6.783 0,-4.962999 4.037,-8.999999 9,-8.999999 4.963,0 9,4.037 9,8.999999 0,2.018 -1.35,4.446 -2.656,6.795 -0.584,1.053 -1.178,2.131 -1.672,3.205 z M 16,5.010966 c 0.275,0 0.5,0.224 0.5,0.5 0,0.276 -0.224,0.5 -0.5,0.5 -2.757,0 -5,2.243 -5,4.999999 0,0.276 -0.224,0.5 -0.5,0.5 -0.276,0 -0.5,-0.224 -0.5,-0.5 0,-3.308999 2.691,-5.999999 6,-5.999999 z" />
</svg>
