<?xml version="1.0" encoding="utf-8"?>
<!-- Generated by IcoMoon.io -->
<!DOCTYPE svg PUBLIC "-//W3C//DTD SVG 1.1//EN" "http://www.w3.org/Graphics/SVG/1.1/DTD/svg11.dtd">
<svg version="1.1" xmlns="http://www.w3.org/2000/svg" xmlns:xlink="http://www.w3.org/1999/xlink" width="32" height="32" viewBox="0 0 32 32">
<g id="icomoon-ignore">
	<line stroke-width="1" x1="" y1="" x2="" y2="" stroke="#449FDB" opacity=""></line>
</g>
	<path d="M14.531 1.406q-2.698 0.271-5.12 1.49t-4.255 3.229q-1.802 1.979-2.802 4.49-1.021 2.594-1.021 5.385 0 2.99 1.156 5.708 1.073 2.573 3.135 4.667 2.094 2.063 4.667 3.135 2.719 1.156 5.708 1.156 2.792 0 5.385-1.021 2.51-1 4.49-2.802 2.010-1.833 3.229-4.255t1.49-5.12q0.052-0.594-0.339-1.031t-0.995-0.438q-0.51 0-0.891 0.344t-0.432 0.854q-0.219 2.219-1.214 4.198t-2.651 3.479q-1.615 1.49-3.667 2.292-2.125 0.833-4.406 0.833-2.448 0-4.667-0.938-2.104-0.885-3.823-2.573-1.688-1.719-2.573-3.823-0.938-2.219-0.938-4.667 0-2.281 0.833-4.406 0.802-2.052 2.292-3.667 1.5-1.656 3.479-2.651t4.198-1.214q0.51-0.052 0.854-0.432t0.344-0.891q0-0.396-0.151-0.677t-0.401-0.417-0.474-0.188-0.443-0.052zM29.333 1.333h-8q-0.552 0-0.943 0.391t-0.391 0.943 0.391 0.943 0.943 0.391h4.781l-11.063 11.063q-0.385 0.375-0.385 0.938 0 0.573 0.38 0.953t0.953 0.38q0.563 0 0.948-0.385l11.052-11.063v4.781q0 0.552 0.391 0.943t0.943 0.391 0.943-0.391 0.391-0.943v-8q0-0.552-0.391-0.943t-0.943-0.391z" fill="#000000"></path>
</svg>
