<?xml version="1.0" encoding="utf-8"?>
<!DOCTYPE svg PUBLIC "-//W3C//DTD SVG 1.1//EN" "http://www.w3.org/Graphics/SVG/1.1/DTD/svg11.dtd">
<svg version="1.1" xmlns="http://www.w3.org/2000/svg" xmlns:xlink="http://www.w3.org/1999/xlink" width="32" height="32" viewBox="0 0 32 32">
  <g id="icomoon-ignore">
  	<line stroke-width="1" x1="" y1="" x2="" y2="" stroke="#449FDB" opacity=""></line>
  </g>
	<path d="M16 2c2.529 0 4.908 0.983 6.7 2.775 1.788 1.787 2.775 4.167 2.775 6.696 0 1.358-0.654 3.154-1.204 4.421-0.75 1.729-1.833 3.704-3.133 5.704-1.154 1.775-2.454 3.533-3.658 4.95-0.7 0.821-1.225 1.363-1.596 1.712-0.375-0.325-0.908-0.85-1.621-1.675-1.171-1.358-2.442-3.1-3.579-4.908-2.563-4.075-4.154-7.983-4.154-10.204 0-2.529 0.983-4.908 2.775-6.696 1.787-1.792 4.167-2.775 6.696-2.775zM16-0.667c-6.704 0-12.137 5.433-12.137 12.137 0 6.708 9.533 19.863 12.137 19.863 1.925 0 12.142-13.154 12.142-19.863-0.004-6.704-5.438-12.137-12.142-12.137v0zM15.946 8.238c1.679 0 3.042 1.363 3.042 3.042s-1.363 3.042-3.042 3.042-3.042-1.363-3.042-3.042 1.363-3.042 3.042-3.042zM15.946 5.571c-3.154 0-5.708 2.554-5.708 5.708s2.554 5.708 5.708 5.708c3.154 0 5.708-2.554 5.708-5.708s-2.558-5.708-5.708-5.708v0z" fill="#000000"></path>
</svg>
