<?xml version="1.0" encoding="utf-8"?>
<!-- Generated by IcoMoon.io -->
<!DOCTYPE svg PUBLIC "-//W3C//DTD SVG 1.1//EN" "http://www.w3.org/Graphics/SVG/1.1/DTD/svg11.dtd">
<svg version="1.1" xmlns="http://www.w3.org/2000/svg" xmlns:xlink="http://www.w3.org/1999/xlink" width="32" height="32" viewBox="0 0 32 32">
<g id="icomoon-ignore">
	<line stroke-width="1" x1="" y1="" x2="" y2="" stroke="#449FDB" opacity=""></line>
</g>
	<path d="M25.443 8.293c-3.326 0-6.971 1.853-9.443 4.664-2.472-2.811-6.118-4.664-9.445-4.664-3.17 0-6.555 1.85-6.555 7.040s3.386 7.038 6.555 7.040v0c3.328 0 6.973-1.853 9.445-4.664 2.472 2.811 6.117 4.664 9.443 4.664 3.171 0 6.557-1.85 6.557-7.040s-3.386-7.040-6.557-7.040zM6.555 19.557c-2.419 0-3.646-1.421-3.646-4.224s1.227-4.226 3.646-4.226c2.675 0 5.782 1.738 7.69 4.226-1.907 2.488-5.013 4.224-7.69 4.224zM25.443 19.557c-2.675 0-5.782-1.736-7.69-4.224 1.906-2.488 5.014-4.226 7.69-4.226 2.421 0 3.646 1.422 3.646 4.226s-1.226 4.224-3.646 4.224z" fill="#000000"></path>
</svg>
