<?xml version="1.0" encoding="utf-8"?>
<!-- Generated by IcoMoon.io -->
<!DOCTYPE svg PUBLIC "-//W3C//DTD SVG 1.1//EN" "http://www.w3.org/Graphics/SVG/1.1/DTD/svg11.dtd">
<svg version="1.1" xmlns="http://www.w3.org/2000/svg" xmlns:xlink="http://www.w3.org/1999/xlink" width="32" height="32" viewBox="0 0 32 32">
<g id="icomoon-ignore">
	<line stroke-width="1" x1="" y1="" x2="" y2="" stroke="#449FDB" opacity=""></line>
</g>
	<path d="M30.829 22.529c-0.779-0.742-1.863-1.383-3.242-1.929s-2.954-0.954-4.729-1.233c0.675-0.646 1.2-1.4 1.575-2.271s0.567-1.792 0.567-2.762v-3.5c0-1.271-0.313-2.442-0.938-3.513s-1.475-1.921-2.546-2.546c-0.333-0.196-0.679-0.358-1.029-0.496-0.108-0.258-0.238-0.546-0.379-0.792-0.625-1.071-1.475-1.921-2.546-2.546s-2.25-0.942-3.521-0.942-2.442 0.313-3.512 0.938-1.921 1.475-2.546 2.546-0.942 2.246-0.942 3.517v3.5c0 0.971 0.188 1.892 0.567 2.758s0.9 1.625 1.567 2.275c-1.775 0.275-3.35 0.683-4.725 1.225s-2.454 1.188-3.237 1.929c-0.779 0.738-1.171 1.521-1.171 2.342v2.304c0 0.967 0.342 1.792 1.025 2.475s1.508 1.025 2.475 1.025h0.458v0.333c0 0.967 0.342 1.792 1.025 2.475s1.508 1.025 2.475 1.025h21c0.967 0 1.792-0.342 2.475-1.025s1.025-1.508 1.025-2.475v-2.296c0-0.821-0.392-1.604-1.171-2.342zM22.667 10.833v3.5c0 1.287-0.454 2.388-1.367 3.3s-2.012 1.367-3.3 1.367-2.387-0.454-3.3-1.367-1.367-2.012-1.367-3.3v-3.5c0-1.287 0.454-2.387 1.367-3.3s2.012-1.367 3.3-1.367 2.387 0.454 3.3 1.367 1.367 2.013 1.367 3.3zM9.375 7c0-1.287 0.454-2.388 1.367-3.3s2.013-1.367 3.3-1.367 2.387 0.454 3.3 1.367c0.038 0.038 0.075 0.104 0.113 0.154-1.063 0.079-2.050 0.383-2.967 0.917-1.071 0.625-1.921 1.475-2.546 2.546s-0.942 2.246-0.942 3.517v3.171c-0.083-0.067-0.188-0.133-0.258-0.208-0.912-0.908-1.367-2.008-1.367-3.296v-3.5zM4.025 24.5c0 0 0 0 0 0h-0.483c-0.321 0-0.596-0.113-0.825-0.342s-0.342-0.504-0.342-0.825v-2.304c0-0.079 0.050-0.183 0.146-0.313s0.242-0.283 0.433-0.458c0.192-0.175 0.471-0.375 0.837-0.592s0.783-0.425 1.254-0.621c1.167-0.488 2.533-0.863 4.104-1.133 0.854-0.146 1.762-0.254 2.65-0.321 0.35 0.663 0.792 1.254 1.329 1.779-1.775 0.275-3.35 0.683-4.725 1.225s-2.454 1.188-3.237 1.929c-0.662 0.625-1.042 1.288-1.142 1.975zM4 24.863c0-0.042 0-0.083 0.004-0.125-0.004 0.038-0.004 0.083-0.004 0.125zM4.008 24.683c0-0.021 0.004-0.042 0.004-0.063-0.004 0.021-0.004 0.042-0.004 0.063zM29.667 27.167c0 0.321-0.113 0.596-0.342 0.825s-0.504 0.342-0.825 0.342h-21c-0.321 0-0.596-0.113-0.825-0.342s-0.342-0.504-0.342-0.825v-2.304c0-0.079 0.050-0.183 0.146-0.313s0.242-0.283 0.433-0.458c0.192-0.175 0.471-0.375 0.838-0.592s0.783-0.425 1.254-0.621c1.167-0.488 2.533-0.863 4.104-1.133s3.204-0.413 4.892-0.413 3.321 0.133 4.892 0.404c1.571 0.271 2.938 0.65 4.104 1.133 0.467 0.2 0.887 0.408 1.254 0.629s0.646 0.417 0.837 0.592c0.192 0.175 0.337 0.329 0.433 0.458s0.146 0.238 0.146 0.313v2.304z" fill="#000000"></path>
</svg>
