<?xml version="1.0" encoding="UTF-8"?>
<svg viewBox="0 0 256 50" version="1.1" xmlns="http://www.w3.org/2000/svg" xmlns:xlink="http://www.w3.org/1999/xlink">
  <g id="Zanata" fill="#03A6D7">
    <path d="M225.492838,32.4568 L231.453162,19.0512 L237.538091,32.4568 L225.492838,32.4568 L225.492838,32.4568 Z M233.236586,0.0972 L230.103263,0.0712 L230.103263,0.079 L207.035566,50.038 L217.598525,50.038 L221.614475,41.2422 L241.421646,41.2422 L245.611525,50.038 L255.974596,50.038 L233.236586,0.0972 L233.236586,0.0972 Z"></path>
    <path d="M213.559212,0.6952 L179.749434,0.6952 L179.749434,10.1176 L191.566242,10.1176 L191.566242,50.0328 L201.71904,50.0328 L201.71904,10.1176 L213.559212,10.1176 L213.559212,0.6952" id="Fill-17"></path>
    <path d="M156.149566,32.4568 L162.112485,19.0512 L168.197414,32.4568 L156.149566,32.4568 L156.149566,32.4568 Z M160.75999,0.0712 L160.75999,0.079 L137.692293,50.038 L148.257848,50.038 L152.273798,41.2422 L172.08097,41.2422 L176.268253,50.038 L186.633919,50.038 L163.895909,0.0972 L160.75999,0.0712 L160.75999,0.0712 Z"></path>
    <path d="M122.931667,29.6644 C113.609576,19.8416 104.456222,9.8576 95.1029798,0.0634 L91.2739394,0.0634 C91.1389495,16.3368 91.172697,33.4552 91.237596,50.038 L101.255404,50.038 L101.265788,19.982 L128.816707,50.0406 L133.01697,50.0406 L133.01697,0.7342 L122.913495,0.7342 C122.960222,10.0526 122.931667,20.086 122.931667,29.6644"></path>
    <path d="M56.3868384,32.4568 L62.3471616,19.0512 L68.4320909,32.4568 L56.3868384,32.4568 L56.3868384,32.4568 Z M60.9946667,0.0712 L60.9946667,0.079 L37.9295657,50.038 L48.4925253,50.038 L52.5084747,41.2422 L72.3156465,41.2422 L76.5055253,50.038 L86.868596,50.038 L64.1305859,0.0972 L60.9946667,0.0712 L60.9946667,0.0712 Z"></path>
    <path d="M35.2583232,0.6952 C24.6486364,0.6952 13.6054242,0.7732 2.79584848,0.7212 C2.79325253,3.9114 2.77508081,7.3694 2.77248485,10.219 C7.49193939,10.219 14.9449394,10.1956 21.0194848,10.1956 L0.869646465,46.6476 L0.796959596,46.9258 C0.791767677,47.9658 0.812535354,50.0328 0.812535354,50.0328 C11.7415253,50.0094 27.6028384,50.0588 33.8928485,50.0328 C33.8772727,46.9076 33.8772727,43.6004 33.8850606,40.6676 C27.7975354,40.6156 21.5438687,40.574 15.3732727,40.574 L35.1882323,3.7762 L35.2583232,3.5032 L35.2583232,0.6926 L35.2583232,0.6952"></path>
  </g>
</svg>
