<?xml version="1.0" encoding="utf-8"?>
<!-- Generator: Adobe Illustrator 17.0.0, SVG Export Plug-In . SVG Version: 6.00 Build 0)  -->
<!DOCTYPE svg PUBLIC "-//W3C//DTD SVG 1.1//EN" "http://www.w3.org/Graphics/SVG/1.1/DTD/svg11.dtd">
<svg version="1.1" xmlns="http://www.w3.org/2000/svg" xmlns:xlink="http://www.w3.org/1999/xlink" x="0px" y="0px" width="267px"
	 height="267px" viewBox="0 0 267 267" enable-background="new 0 0 267 267" xml:space="preserve">
<g id="svg2" xmlns:svg="http://www.w3.org/2000/svg">
	<rect x="0" fill="#3C6EB4" width="267" height="267"/>
	<path id="voice" fill="#294172" d="M249.626,133.505c0-63.583-51.544-115.129-115.127-115.129
		c-63.554,0-115.079,51.503-115.124,115.048v89.091c0.034,14.428,11.736,26.109,26.174,26.109h88.997
		C198.107,248.599,249.626,197.072,249.626,133.505"/>
	<path fill="#3C6EB4" d="M168.301,43.66c-30.868,0-55.981,25.113-55.981,55.98v26.69H85.749c-30.868,0-55.98,25.113-55.98,55.98
		c0,30.868,25.113,55.981,55.98,55.981s55.981-25.113,55.981-55.981v-26.689h26.571c30.867,0,55.98-25.113,55.98-55.981
		S199.168,43.66,168.301,43.66z M112.519,182.311c0,14.762-12.009,26.771-26.771,26.771s-26.771-12.009-26.771-26.771
		c0-14.761,12.009-26.77,26.771-26.77h26.571v0.08h0.199L112.519,182.311L112.519,182.311z M168.301,126.411H141.73v-0.08h-0.199
		V99.64c0-14.761,12.009-26.771,26.771-26.771c14.761,0,26.77,12.009,26.77,26.771S183.062,126.411,168.301,126.411z"/>
	<path fill="#FFFFFF" d="M180.236,47.272c-4.191-1.095-7.409-1.607-11.936-1.607c-29.84,0-54.032,24.193-54.032,54.032v28.639
		h-22.63c-7.056,0-12.758,5.545-12.754,12.588c0,7,5.64,12.568,12.621,12.568l18.736,0.004c2.224,0,4.029,1.799,4.029,4.02v24.782
		c-0.028,15.732-12.788,28.475-28.52,28.475c-5.329,0-6.649-0.698-10.287-0.698c-7.643,0-12.756,5.124-12.756,12.167
		c0.002,5.827,4.996,10.838,11.106,12.437c4.191,1.095,7.409,1.607,11.936,1.607c29.84,0,54.032-24.193,54.032-54.032v-28.639
		h22.629c7.056,0,12.758-5.545,12.754-12.588c0-7-5.64-12.568-12.621-12.568l-18.736-0.004c-2.224,0-4.029-1.799-4.029-4.02V99.653
		c0.028-15.732,12.788-28.475,28.52-28.475c5.329,0,6.649,0.698,10.287,0.698c7.643,0,12.756-5.124,12.756-12.167
		C191.34,53.882,186.347,48.872,180.236,47.272z"/>
</g>
</svg>
