<?xml version="1.0" encoding="utf-8"?>
<!-- Generator: Adobe Illustrator 17.0.0, SVG Export Plug-In . SVG Version: 6.00 Build 0)  -->
<!DOCTYPE svg PUBLIC "-//W3C//DTD SVG 1.1//EN" "http://www.w3.org/Graphics/SVG/1.1/DTD/svg11.dtd">
<svg version="1.1" xmlns="http://www.w3.org/2000/svg" xmlns:xlink="http://www.w3.org/1999/xlink" x="0px" y="0px" width="267px"
	 height="267px" viewBox="0 0 267 267" enable-background="new 0 0 267 267" xml:space="preserve">
<g id="Layer_3">
	<g>
		<path fill="#226AB4" d="M267.022,234.08c0,17.633-14.298,31.92-31.92,31.92H32.942c-17.633,0-31.92-14.287-31.92-31.92V31.92
			C1.022,14.292,15.309,0,32.942,0h202.16c17.622,0,31.92,14.292,31.92,31.92V234.08z"/>
	</g>
	<path fill="#E5361F" d="M235.102,0h-138.6l14.245,57.855L96.086,102.81l37.936,27.53l133,49.511V31.92c0-8.297,0-31.92,0-31.92
		S244.43,0,235.102,0z"/>
	<path fill="#00A14C" d="M73.289,119.513c0,0,43.547,32.866,47.828,81.109c4.281,48.254-73.773,63.633-73.773,63.633V266h187.759
		c8.811,0,31.92,0,31.92,0s0-23.103,0-31.92V104.696C176.094,27.171,73.289,119.513,73.289,119.513z"/>
	<path fill="#FDCC00" d="M81.006,158.728l-58.538,9.684c0,0-8.146,1.44-20.948,29.716v35.582c0,8.8,3.465,16.756,9.055,22.591
		c2.136,1.019,3.536,1.519,3.536,1.519l84.78,3.62c33.34-12.273,27.81-67.732,27.81-67.732L81.006,158.728z"/>
	<path fill="#FFFFFF" d="M75.045,4.172c5.788,4.515,10.453,10.375,13.996,17.576c7.554,15.015,11.326,29.91,11.326,44.679
		c0,3.424-0.27,7.632-0.81,12.635c-0.904,5.008-2.94,9.892-6.11,14.651c-6.577,6.713-14.796,10.256-24.657,10.619
		c-7.814,0-14.744-2.379-20.823-7.138c-6.068-4.764-11.024-10.562-14.858-17.399c-7.939-14.645-11.898-28.746-11.898-42.3
		c-0.249-10.251,2.473-19.529,8.147-27.832C33.119,5.221,37.441,2.031,42.284,0h-9.341c-8.708,0-31.92,0-31.92,0s0,22.998,0,31.92
		v58.052c1.486,1.959,3.065,3.881,4.842,5.741c10.453,12.302,25.654,18.578,45.594,18.817c3.772,0,7.783-0.239,12.042-0.727
		c-0.706,1.959-1.465,4.099-2.285,6.427c-0.946,2.203-1.414,4.961-1.414,8.271c0,5.517,1.237,10.225,3.699,14.142
		c2.109,4.042,4.52,7.845,7.222,11.399c-8.739,0.249-19.722,1.34-32.949,3.283c-12.822,2.213-25.062,6.619-36.752,13.103L0.967,266
		c0,0,15.3,0,31.975,0h51.091c14.88-3.678,27.286-9.715,37.063-18.246c16.033-14.007,24.044-30.091,24.044-48.243
		c-0.228-12.791-3.148-23.15-8.759-31.068c-5.954-7.793-12.874-14.921-20.771-21.384l-12.719-10.412
		c-1.828-1.828-3.72-3.959-5.663-6.4c-2.286-2.556-3.439-5.782-3.439-9.684c0-4.021,1.122-7.554,3.356-10.599
		c1.891-2.925,3.959-5.543,6.192-7.855c3.907-3.413,7.585-6.764,11.045-10.053c3.128-3.289,6.089-6.884,8.874-10.78
		c5.694-8.042,8.655-18.76,8.873-32.164c0-7.31-0.821-13.705-2.463-19.186c-2.005-5.486-4.302-10.235-6.889-14.256
		c-2.701-4.265-5.465-7.86-8.292-10.78c-2.109-2.021-4.021-3.564-5.839-4.889H67.263C69.995,1.075,72.614,2.411,75.045,4.172z
		 M111.713,189.296c6.204,7.066,9.31,15.357,9.31,24.865c0,11.689-4.541,21.259-13.601,28.688
		c-9.299,7.554-22.787,11.461-40.441,11.7c-19.68-0.239-35.182-4.634-46.519-13.155C8.535,232.864,2.57,222.016,2.57,208.862
		c0-6.713,1.371-12.438,4.115-17.186c2.39-4.51,5.309-8.292,8.769-11.336c3.575-2.92,7.097-5.174,10.557-6.754
		c3.46-1.465,6.141-2.566,8.052-3.294c8.105-2.442,16.044-4.209,23.795-5.299c7.876-0.738,12.76-0.977,14.671-0.738
		c3.221,0,6.026,0.124,8.406,0.374C94.902,174.375,105.157,182.595,111.713,189.296z"/>
</g>
</svg>
