<?xml version="1.0" encoding="utf-8"?>
<!-- Generator: Adobe Illustrator 17.1.0, SVG Export Plug-In . SVG Version: 6.00 Build 0)  -->
<!DOCTYPE svg PUBLIC "-//W3C//DTD SVG 1.1//EN" "http://www.w3.org/Graphics/SVG/1.1/DTD/svg11.dtd">
<svg version="1.1" id="Layer_1" xmlns="http://www.w3.org/2000/svg" xmlns:xlink="http://www.w3.org/1999/xlink" x="0px" y="0px"
	 viewBox="0 0 267 267" enable-background="new 0 0 267 267" xml:space="preserve">
<rect fill="#FFFFFF" width="267" height="267"/>
<polygon fill="#F7921C" points="122.5,46.4 122.5,215.4 122.5,236.6 156.3,220.7 156.3,29.9 "/>
<polyline fill="#BBBDBF" points="239.6,102.2 244.3,150.7 178.9,136.5 "/>
<path fill="#BBBDBF" d="M162.2,92.5v21.5c14.2,2.5,26.8,7.1,36.9,13.4l23.9-14.8C206.8,102.5,185.7,95.3,162.2,92.5 M54.8,164.3
	c0-24,26.1-44.1,61.7-50.3V92.5C62.1,99,21,128.7,21,164.3c0,36.8,44.1,67.3,101.5,72.4v-21.2C83.9,210.6,54.8,189.5,54.8,164.3"/>
<polygon fill="#F7921C" points="122.5,46.4 122.5,215.4 122.5,236.6 156.3,220.7 156.3,29.9 "/>
<polyline fill="#BBBDBF" points="239.6,102.2 244.3,150.7 178.9,136.5 "/>
<path fill="#BBBDBF" d="M162.2,92.5v21.5c14.2,2.5,26.8,7.1,36.9,13.4l23.9-14.8C206.8,102.5,185.7,95.3,162.2,92.5 M54.8,164.3
	c0-24,26.1-44.1,61.7-50.3V92.5C62.1,99,21,128.7,21,164.3c0,36.8,44.1,67.3,101.5,72.4v-21.2C83.9,210.6,54.8,189.5,54.8,164.3"/>
</svg>
