<?xml version="1.0" encoding="utf-8"?>
<!-- Generator: Adobe Illustrator 17.0.0, SVG Export Plug-In . SVG Version: 6.00 Build 0)  -->
<!DOCTYPE svg PUBLIC "-//W3C//DTD SVG 1.1//EN" "http://www.w3.org/Graphics/SVG/1.1/DTD/svg11.dtd">
<svg version="1.1" xmlns="http://www.w3.org/2000/svg" xmlns:xlink="http://www.w3.org/1999/xlink" x="0px" y="0px" width="267px"
	 height="267px" viewBox="0 0 267 267" enable-background="new 0 0 267 267" xml:space="preserve">
<g id="Layer_2">
	<rect x="0" fill="#630F68" width="267" height="267"/>
	<g>
		<path fill-rule="evenodd" clip-rule="evenodd" fill="#FFFFFF" d="M206.175,68.977c11.732,2.593,25.661,2.959,37.999,4.935
			c-6.059,29.744-14.35,57.285-20.253,87.2c-6.39,0.12-10.799-1.776-17.028-1.836C206.652,129.181,206.411,99.076,206.175,68.977z
			"/>
		<path fill-rule="evenodd" clip-rule="evenodd" fill="#FFFFFF" d="M190.286,128.655c2.633,41.024-29.629,63.189-64.238,68.576
			c-11.647,1.806-24.954,1.79-35.978,0.286c-43.918-5.999-79.54-37.739-60.902-86.558c14.716-26.408,52.149-43.286,95.245-37.403
			C158.074,78.151,185.104,96.499,190.286,128.655z M55.351,111.41c5.136,0.497,9.655,1.62,15.067,1.836
			c1.881,4.685,7.228,6.872,9.896,11.05c7.749,12.133,21.031,18.197,18.639,39.775c-2.232-0.466-1.068,2.413-2.598,2.633
			c-4.088,0.517-8.261,0.963-13.066,0.763c0.512,2.458-0.782,3.135-0.627,5.231c15.945,0.482,37.096-3.862,47.77-0.371
			c0.386-1.57,0.923-3.005,0.607-5.247c-3.581-1.851-11.481,0.672-15.057-1.189c-0.15-0.506-0.552-0.752-1.299-0.632
			c-0.988-6.857-0.075-11.657-0.16-18.985c12.469-10.669,21.974-24.246,42.313-27.175c-0.341-2.051,1.163-2.323,0.627-4.57
			c-2.081,1.259-2.061,0.09-4.584,0.03c-10.132-0.261-25.275,0.446-36.646,0.296c-0.492,2.909,0.486,4.339,1.359,5.878
			c4.605-0.07,9.37-0.281,12.45,1.204c-5.282,7.353-12.359,12.946-20.154,17.831c-7.217-8.943-14.214-18.097-21.156-27.316
			c2.959-3.16,12.901,0.572,15.017-3.396c0.005-0.657-0.01-1.304-0.01-1.956c-14.842-1.409-32.503,0.041-48.427-0.271
			C55.315,108.371,55.331,109.885,55.351,111.41z"/>
		<path fill-rule="evenodd" clip-rule="evenodd" fill="#FFFFFF" d="M225.341,174.183c-0.216,7.157-2.288,12.484-1.811,20.304
			c-8.301,0.301-13.678-2.383-22.27-1.796c-0.772-5.537,0.346-14.205,1.163-20.289C208.939,171.56,216.694,174.99,225.341,174.183
			z"/>
	</g>
</g>
</svg>
