<svg xmlns="http://www.w3.org/2000/svg" viewBox="0 0 512 512"><g class="Logo"><path class="LogoLoader-circle" d="M256.04 26.902c-126.662 0-229.635 103.357-229.635 230.38 0 127.02 102.973 230.378 229.636 230.378s229.636-103.357 229.636-230.38c0-127.02-102.973-230.378-229.635-230.378zm0 39.488c105.747 0 191.19 85.71 191.19 191.893 0 106.184-85.443 191.893-191.19 191.893-105.746 0-191.188-85.71-191.188-191.893 0-106.184 85.442-191.893 191.19-191.893z" fill="#03A6D7"/><g transform="translate(26.377 25.222)"><mask id="a"><path class="LogoLoader-zMask" d="M229.663.657C102.978.657.005 104.01.005 231.057c0 127.047 102.973 230.4 229.658 230.4 126.686 0 229.66-103.353 229.66-230.4 0-127.047-102.974-230.4-229.66-230.4z"/></mask><path class="Logo-z" d="M370.36 205.005s-45.37 55.663-89.414 132.896l170.47 178.9S291.53 440.595 125.653 346.91c29.695-51.51 69.193-103.634 69.193-103.634S114.213 210.44 4.56 152.392C52.168 80.587 110.748 21.138 110.748 21.138s120.792 92.18 259.612 183.867z" opacity=".1" mask="url(#a)"/></g><path class="Logo-z" d="M381.953 190.18s-45.368 55.664-89.413 132.897l170.47 178.9s-159.888-76.208-325.764-169.893c29.694-51.508 69.192-103.632 69.192-103.632s-80.63-32.838-190.284-90.884C63.76 65.762 122.34 6.314 122.34 6.314s120.793 92.18 259.613 183.866z" fill="#03A6D7"/></g></svg>