<?xml version="1.0" encoding="utf-8"?>
<!-- Generated by IcoMoon.io -->
<!DOCTYPE svg PUBLIC "-//W3C//DTD SVG 1.1//EN" "http://www.w3.org/Graphics/SVG/1.1/DTD/svg11.dtd">
<svg version="1.1" xmlns="http://www.w3.org/2000/svg" xmlns:xlink="http://www.w3.org/1999/xlink" width="32" height="32" viewBox="0 0 32 32">
<g id="icomoon-ignore">
	<line stroke-width="1" x1="" y1="" x2="" y2="" stroke="#449FDB" opacity=""></line>
</g>
	<path d="M16 0q2.177 0 4.016 1.073t2.911 2.911 1.073 4.016v4q0 1.667-0.646 3.156t-1.802 2.594q3.042 0.479 5.406 1.411t3.703 2.203 1.339 2.677v2.625q0 1.656-1.172 2.828t-2.828 1.172h-24q-1.656 0-2.828-1.172t-1.172-2.828v-2.635q0-1.406 1.339-2.677t3.698-2.203 5.401-1.401q-1.146-1.115-1.792-2.599t-0.646-3.151v-4q0-2.177 1.073-4.016t2.911-2.911 4.016-1.073zM16 20q-2.896 0-5.589 0.464t-4.693 1.297q-0.802 0.333-1.432 0.708t-0.958 0.677-0.495 0.526-0.167 0.359v2.635q0 0.552 0.391 0.943t0.943 0.391h24q0.552 0 0.943-0.391t0.391-0.943v-2.625q0-0.135-0.167-0.359t-0.495-0.526-0.958-0.677-1.432-0.719q-2-0.833-4.693-1.297t-5.589-0.464zM16 2.667q-2.208 0-3.771 1.563t-1.563 3.771v4q0 2.208 1.563 3.771t3.771 1.563 3.771-1.563 1.563-3.771v-4q0-2.208-1.563-3.771t-3.771-1.563z" fill="#000000"></path>
</svg>
