<?xml version="1.0" encoding="utf-8"?>
<!-- Generated by IcoMoon.io -->
<!DOCTYPE svg PUBLIC "-//W3C//DTD SVG 1.1//EN" "http://www.w3.org/Graphics/SVG/1.1/DTD/svg11.dtd">
<svg version="1.1" xmlns="http://www.w3.org/2000/svg" xmlns:xlink="http://www.w3.org/1999/xlink" width="32" height="32" viewBox="0 0 32 32">
<g id="icomoon-ignore">
	<line stroke-width="1" x1="" y1="" x2="" y2="" stroke="#449FDB" opacity=""></line>
</g>
	<path d="M13.333 1.333h5.333q1.292 0 2.323 0.745t1.448 1.922h1.563q1.656 0 2.828 1.172t1.172 2.828v18.667q0 1.656-1.172 2.828t-2.828 1.172h-16q-1.656 0-2.828-1.172t-1.172-2.828v-18.667q0-1.656 1.172-2.828t2.828-1.172h1.563q0.417-1.177 1.448-1.922t2.323-0.745zM24 6.667h-1.563q-0.417 1.177-1.448 1.922t-2.323 0.745h-5.333q-1.292 0-2.323-0.745t-1.448-1.922h-1.563q-0.552 0-0.943 0.391t-0.391 0.943v18.667q0 0.552 0.391 0.943t0.943 0.391h16q0.552 0 0.943-0.391t0.391-0.943v-18.667q0-0.552-0.391-0.943t-0.943-0.391zM18.667 4h-5.333q-0.552 0-0.943 0.391t-0.391 0.943 0.391 0.943 0.943 0.391h5.333q0.552 0 0.943-0.391t0.391-0.943-0.391-0.943-0.943-0.391z" fill="#000000"></path>
</svg>
