<?xml version="1.0" encoding="utf-8"?>
<!-- Generated by IcoMoon.io -->
<!DOCTYPE svg PUBLIC "-//W3C//DTD SVG 1.1//EN" "http://www.w3.org/Graphics/SVG/1.1/DTD/svg11.dtd">
<svg version="1.1" xmlns="http://www.w3.org/2000/svg" xmlns:xlink="http://www.w3.org/1999/xlink" width="32" height="32" viewBox="0 0 32 32">
<g id="icomoon-ignore">
	<line stroke-width="1" x1="" y1="" x2="" y2="" stroke="#449FDB" opacity=""></line>
</g>
	<path d="M22 11.333c0.692 0 1.279 0.246 1.767 0.733s0.733 1.075 0.733 1.767v0.429c0.204 0.071 0.45 0.171 0.738 0.3l0.3-0.3c0.492-0.492 1.079-0.738 1.771-0.738 0.688 0 1.275 0.246 1.762 0.738s0.738 1.079 0.738 1.762c0 0.692-0.246 1.279-0.738 1.771l-0.3 0.3c0.129 0.288 0.229 0.533 0.3 0.738h0.429c0.692 0 1.279 0.246 1.767 0.733s0.733 1.075 0.733 1.767-0.246 1.279-0.733 1.767-1.075 0.733-1.767 0.733h-0.429c-0.071 0.204-0.171 0.45-0.3 0.738l0.3 0.3c0.492 0.492 0.738 1.079 0.738 1.771 0 0.688-0.246 1.275-0.738 1.762s-1.079 0.738-1.762 0.738c-0.692 0-1.279-0.246-1.771-0.738l-0.3-0.3c-0.288 0.129-0.533 0.229-0.738 0.3v0.429c0 0.692-0.246 1.279-0.733 1.767s-1.075 0.733-1.767 0.733-1.279-0.246-1.767-0.733-0.733-1.075-0.733-1.767v-0.429c-0.204-0.071-0.45-0.171-0.738-0.3l-0.3 0.3c-0.492 0.492-1.079 0.738-1.762 0.738-0.692 0-1.279-0.246-1.767-0.738s-0.733-1.079-0.733-1.762c0-0.696 0.242-1.283 0.729-1.771l0.3-0.3c-0.129-0.288-0.229-0.533-0.3-0.738h-0.429c-0.692 0-1.279-0.246-1.767-0.733s-0.733-1.075-0.733-1.767 0.246-1.279 0.733-1.767 1.075-0.733 1.767-0.733h0.429c0.071-0.204 0.171-0.45 0.3-0.738l-0.3-0.3c-0.488-0.488-0.729-1.075-0.729-1.771 0-0.688 0.246-1.275 0.733-1.762s1.079-0.738 1.767-0.738c0.688 0 1.275 0.246 1.762 0.738l0.3 0.3c0.288-0.129 0.533-0.229 0.738-0.3v-0.429c0-0.692 0.246-1.279 0.733-1.767s1.075-0.733 1.767-0.733zM22 13c-0.229 0-0.425 0.083-0.587 0.246s-0.246 0.358-0.246 0.588v1.725c-0.971 0.137-1.858 0.504-2.663 1.1l-1.217-1.217c-0.167-0.167-0.358-0.246-0.587-0.246s-0.425 0.083-0.587 0.246-0.246 0.358-0.246 0.587c0 0.233 0.079 0.433 0.242 0.592l1.217 1.217c-0.596 0.804-0.962 1.692-1.1 2.663h-1.725c-0.229 0-0.425 0.083-0.588 0.246s-0.246 0.358-0.246 0.587 0.083 0.425 0.246 0.587 0.358 0.246 0.588 0.246h1.725c0.137 0.971 0.504 1.858 1.1 2.663l-1.217 1.217c-0.162 0.163-0.242 0.358-0.242 0.592 0 0.229 0.083 0.425 0.246 0.587s0.358 0.246 0.587 0.246c0.225 0 0.421-0.083 0.587-0.246l1.217-1.217c0.804 0.596 1.692 0.962 2.663 1.1v1.725c0 0.229 0.083 0.425 0.246 0.587s0.358 0.246 0.587 0.246 0.425-0.083 0.587-0.246 0.246-0.358 0.246-0.587v-1.725c0.971-0.137 1.858-0.504 2.663-1.1l1.217 1.217c0.167 0.167 0.363 0.246 0.592 0.246s0.425-0.083 0.587-0.246 0.246-0.358 0.246-0.587-0.083-0.429-0.246-0.592l-1.217-1.217c0.596-0.804 0.962-1.692 1.1-2.663h1.725c0.229 0 0.425-0.083 0.587-0.246s0.246-0.358 0.246-0.587-0.083-0.425-0.246-0.587-0.358-0.246-0.587-0.246h-1.725c-0.137-0.971-0.504-1.858-1.1-2.663l1.217-1.217c0.167-0.167 0.246-0.363 0.246-0.592s-0.083-0.425-0.246-0.588-0.358-0.246-0.587-0.246-0.429 0.083-0.592 0.246l-1.217 1.217c-0.804-0.596-1.692-0.963-2.663-1.1v-1.725c0-0.229-0.083-0.425-0.246-0.588s-0.358-0.246-0.587-0.246zM22 18c0.921 0 1.704 0.325 2.358 0.975s0.975 1.438 0.975 2.358c0 0.921-0.325 1.704-0.975 2.358s-1.438 0.975-2.358 0.975c-0.921 0-1.704-0.325-2.358-0.975s-0.975-1.438-0.975-2.358c0-0.921 0.325-1.704 0.975-2.358s1.438-0.975 2.358-0.975zM22 19.667c-0.458 0-0.854 0.163-1.179 0.488s-0.488 0.721-0.488 1.179 0.163 0.854 0.488 1.179 0.721 0.488 1.179 0.488 0.854-0.163 1.179-0.488 0.488-0.721 0.488-1.179-0.163-0.854-0.488-1.179-0.721-0.488-1.179-0.488zM11.238 10.571c-0.958 0.958-1.438 2.112-1.438 3.463s0.479 2.504 1.429 3.458c0.171-0.146 0.35-0.279 0.537-0.404-0.071-0.346-0.108-0.7-0.108-1.063 0-0.883 0.217-1.713 0.633-2.45 0.088-0.483 0.313-0.908 0.679-1.275s0.787-0.592 1.267-0.675c0.171-0.096 0.346-0.183 0.529-0.258 0.608-0.254 1.258-0.379 1.933-0.379 0.363 0 0.717 0.037 1.063 0.108 0.121-0.183 0.254-0.363 0.4-0.529-0.954-0.954-2.108-1.429-3.458-1.429-1.358-0.004-2.512 0.475-3.467 1.433zM9.458 21.333c0-0.113 0.004-0.225 0.012-0.337l-1.696 1.696c-0.242 0.242-0.529 0.363-0.862 0.363-0.338 0-0.625-0.121-0.867-0.358-0.237-0.238-0.358-0.529-0.358-0.867 0-0.346 0.117-0.633 0.354-0.871l1.792-1.792c-0.875-1.179-1.412-2.483-1.617-3.912h-2.542c-0.337 0-0.625-0.121-0.867-0.358-0.237-0.238-0.358-0.529-0.358-0.867s0.121-0.625 0.358-0.867c0.237-0.238 0.529-0.358 0.867-0.358h2.538c0.204-1.429 0.742-2.733 1.617-3.912l-1.792-1.792c-0.237-0.237-0.354-0.525-0.354-0.871 0-0.338 0.121-0.625 0.358-0.867 0.237-0.237 0.529-0.358 0.867-0.358 0.333 0 0.621 0.121 0.862 0.362l1.792 1.792c1.179-0.875 2.483-1.413 3.912-1.617v-2.533c0-0.337 0.121-0.625 0.358-0.867 0.238-0.238 0.529-0.358 0.867-0.358s0.625 0.121 0.867 0.358c0.238 0.237 0.358 0.529 0.358 0.867v2.538c1.429 0.204 2.733 0.742 3.912 1.617l1.792-1.792c0.242-0.242 0.533-0.362 0.871-0.362s0.625 0.121 0.867 0.358c0.238 0.237 0.358 0.529 0.358 0.867s-0.121 0.629-0.363 0.871l-1.696 1.696c0.113-0.008 0.221-0.012 0.337-0.012 0.887 0 1.721 0.217 2.458 0.633 0.075-0.021 0.125-0.079 0.196-0.146l0.442-0.442c0.721-0.721 1.083-1.588 1.083-2.604 0-1.008-0.363-1.871-1.083-2.592s-1.587-1.083-2.592-1.083c-1.012 0-1.883 0.362-2.604 1.083l-0.446 0.442c-0.421-0.192-0.783-0.337-1.083-0.442v-0.629c0-1.012-0.358-1.879-1.075-2.6-0.721-0.717-1.583-1.075-2.6-1.075s-1.879 0.358-2.6 1.075c-0.717 0.717-1.075 1.583-1.075 2.6v0.633c-0.3 0.104-0.658 0.25-1.083 0.442l-0.442-0.442c-0.721-0.721-1.588-1.083-2.592-1.083-1.013 0-1.879 0.362-2.6 1.083s-1.075 1.587-1.075 2.592c0 1.021 0.358 1.888 1.071 2.604l0.442 0.442c-0.192 0.421-0.338 0.783-0.442 1.083h-0.629c-1.012 0-1.879 0.358-2.6 1.075-0.717 0.717-1.075 1.583-1.075 2.596s0.358 1.879 1.075 2.6c0.717 0.717 1.583 1.075 2.6 1.075h0.633c0.104 0.3 0.25 0.658 0.442 1.083l-0.442 0.442c-0.717 0.717-1.071 1.583-1.071 2.604 0 1.008 0.358 1.871 1.075 2.592s1.583 1.083 2.6 1.083c1.008 0 1.871-0.363 2.592-1.083l0.442-0.442c0.179-0.212 0.175-0.163 0.113-0.258-0.396-0.725-0.6-1.533-0.6-2.396z" fill="#000000"></path>
</svg>
