<?xml version="1.0" encoding="utf-8"?>
<!-- Generated by IcoMoon.io -->
<!DOCTYPE svg PUBLIC "-//W3C//DTD SVG 1.1//EN" "http://www.w3.org/Graphics/SVG/1.1/DTD/svg11.dtd">
<svg version="1.1" xmlns="http://www.w3.org/2000/svg" xmlns:xlink="http://www.w3.org/1999/xlink" width="32" height="32" viewBox="0 0 32 32">
<g id="icomoon-ignore">
	<line stroke-width="1" x1="" y1="" x2="" y2="" stroke="#449FDB" opacity=""></line>
</g>
	<path d="M5.333 1.333h9.333q0.552 0 0.943 0.391t0.391 0.943-0.391 0.943-0.943 0.391h-9.333q-0.552 0-0.943 0.391t-0.391 0.943v21.333q0 0.552 0.391 0.943t0.943 0.391h21.333q0.552 0 0.943-0.391t0.391-0.943v-9.333q0-0.552 0.391-0.943t0.943-0.391 0.943 0.391 0.391 0.943v9.333q0 1.656-1.172 2.828t-2.828 1.172h-21.333q-1.656 0-2.828-1.172t-1.172-2.828v-21.333q0-1.656 1.172-2.828t2.828-1.172zM21.333 1.333h8q0.552 0 0.943 0.391t0.391 0.943v8q0 0.552-0.391 0.943t-0.943 0.391-0.943-0.391-0.391-0.943v-4.781l-11.063 11.063q-0.385 0.385-0.938 0.385-0.573 0-0.953-0.38t-0.38-0.953q0-0.552 0.385-0.938l11.063-11.063h-4.781q-0.552 0-0.943-0.391t-0.391-0.943 0.391-0.943 0.943-0.391z" fill="#000000"></path>
</svg>
