<?xml version="1.0" encoding="utf-8"?>
<!-- Generated by IcoMoon.io -->
<!DOCTYPE svg PUBLIC "-//W3C//DTD SVG 1.1//EN" "http://www.w3.org/Graphics/SVG/1.1/DTD/svg11.dtd">
<svg version="1.1" xmlns="http://www.w3.org/2000/svg" xmlns:xlink="http://www.w3.org/1999/xlink" width="32" height="32" viewBox="0 0 32 32">
<g id="icomoon-ignore">
	<line stroke-width="1" x1="" y1="" x2="" y2="" stroke="#449FDB" opacity=""></line>
</g>
	<path d="M16 1.333q2.99 0 5.703 1.161t4.677 3.125 3.125 4.677 1.161 5.703-1.161 5.703-3.125 4.677-4.677 3.125-5.703 1.161-5.703-1.161-4.677-3.125-3.125-4.677-1.161-5.703 1.161-5.703 3.125-4.677 4.677-3.125 5.703-1.161zM23.49 25.375l-16.865-16.865q-1.25 1.573-1.938 3.49t-0.688 4q0 2.438 0.953 4.661t2.557 3.828 3.828 2.557 4.661 0.953q2.094 0 4.010-0.682t3.479-1.943zM16 4q-2.094 0-4.010 0.682t-3.479 1.943l16.865 16.865q1.26-1.563 1.943-3.479t0.682-4.010q0-2.438-0.953-4.661t-2.557-3.828-3.828-2.557-4.661-0.953z" fill="#000000"></path>
</svg>
