<?xml version="1.0" encoding="utf-8"?>
<!-- Generated by IcoMoon.io -->
<!DOCTYPE svg PUBLIC "-//W3C//DTD SVG 1.1//EN" "http://www.w3.org/Graphics/SVG/1.1/DTD/svg11.dtd">
<svg version="1.1" xmlns="http://www.w3.org/2000/svg" xmlns:xlink="http://www.w3.org/1999/xlink" width="32" height="32" viewBox="0 0 32 32">
<g id="icomoon-ignore">
	<line stroke-width="1" x1="" y1="" x2="" y2="" stroke="#449FDB" opacity=""></line>
</g>
	<path d="M16 1.333q2.177 0 4.016 1.073t2.911 2.911 1.073 4.016v5.333h2.667q1.656 0 2.828 1.172t1.172 2.828v8q0 1.656-1.172 2.828t-2.828 1.172h-21.333q-1.656 0-2.828-1.172t-1.172-2.828v-8q0-1.656 1.172-2.828t2.828-1.172h2.667v-5.333q0-2.177 1.073-4.016t2.911-2.911 4.016-1.073zM26.667 17.333h-21.333q-0.552 0-0.943 0.391t-0.391 0.943v8q0 0.552 0.391 0.943t0.943 0.391h21.333q0.552 0 0.943-0.391t0.391-0.943v-8q0-0.552-0.391-0.943t-0.943-0.391zM16 4q-2.208 0-3.771 1.563t-1.563 3.771v5.333h10.667v-5.333q0-2.208-1.563-3.771t-3.771-1.563z" fill="#000000"></path>
</svg>
