<?xml version="1.0" encoding="utf-8"?>
<!-- Generator: Adobe Illustrator 17.0.0, SVG Export Plug-In . SVG Version: 6.00 Build 0)  -->
<!DOCTYPE svg PUBLIC "-//W3C//DTD SVG 1.1//EN" "http://www.w3.org/Graphics/SVG/1.1/DTD/svg11.dtd">
<svg version="1.1" id="Layer_1" xmlns="http://www.w3.org/2000/svg" xmlns:xlink="http://www.w3.org/1999/xlink" x="0px" y="0px"
	 width="500px" height="500px" viewBox="0 0 500 500" enable-background="new 0 0 500 500" xml:space="preserve">
<g display="none">
	<line display="inline" fill="none" stroke="#B35047" x1="25" y1="0" x2="25" y2="500"/>
	<line display="inline" fill="none" stroke="#B35047" x1="50" y1="0" x2="50" y2="500"/>
	<line display="inline" fill="none" stroke="#B35047" x1="75" y1="0" x2="75" y2="500"/>
	<line display="inline" fill="none" stroke="#B35047" x1="100" y1="0" x2="100" y2="500"/>
	<line display="inline" fill="none" stroke="#B35047" x1="125" y1="0" x2="125" y2="500"/>
	<line display="inline" fill="none" stroke="#B35047" x1="150" y1="0" x2="150" y2="500"/>
	<line display="inline" fill="none" stroke="#B35047" x1="175" y1="0" x2="175" y2="500"/>
	<line display="inline" fill="none" stroke="#B35047" x1="200" y1="0" x2="200" y2="500"/>
	<line display="inline" fill="none" stroke="#B35047" x1="225" y1="0" x2="225" y2="500"/>
	<line display="inline" fill="none" stroke="#B35047" x1="250" y1="0" x2="250" y2="500"/>
	<line display="inline" fill="none" stroke="#B35047" x1="275" y1="0" x2="275" y2="500"/>
	<line display="inline" fill="none" stroke="#B35047" x1="300" y1="0" x2="300" y2="500"/>
	<line display="inline" fill="none" stroke="#B35047" x1="325" y1="0" x2="325" y2="500"/>
	<line display="inline" fill="none" stroke="#B35047" x1="350" y1="0" x2="350" y2="500"/>
	<line display="inline" fill="none" stroke="#B35047" x1="375" y1="0" x2="375" y2="500"/>
	<line display="inline" fill="none" stroke="#B35047" x1="400" y1="0" x2="400" y2="500"/>
	<line display="inline" fill="none" stroke="#B35047" x1="425" y1="0" x2="425" y2="500"/>
	<line display="inline" fill="none" stroke="#B35047" x1="450" y1="0" x2="450" y2="500"/>
	<line display="inline" fill="none" stroke="#B35047" x1="475" y1="0" x2="475" y2="500"/>
	<line display="inline" fill="none" stroke="#B35047" x1="0" y1="25" x2="500" y2="25"/>
	<line display="inline" fill="none" stroke="#B35047" x1="0" y1="50" x2="500" y2="50"/>
	<line display="inline" fill="none" stroke="#B35047" x1="0" y1="75" x2="500" y2="75"/>
	<line display="inline" fill="none" stroke="#B35047" x1="0" y1="100" x2="500" y2="100"/>
	<line display="inline" fill="none" stroke="#B35047" x1="0" y1="125" x2="500" y2="125"/>
	<line display="inline" fill="none" stroke="#B35047" x1="0" y1="150" x2="500" y2="150"/>
	<line display="inline" fill="none" stroke="#B35047" x1="0" y1="175" x2="500" y2="175"/>
	<line display="inline" fill="none" stroke="#B35047" x1="0" y1="200" x2="500" y2="200"/>
	<line display="inline" fill="none" stroke="#B35047" x1="0" y1="225" x2="500" y2="225"/>
	<line display="inline" fill="none" stroke="#B35047" x1="0" y1="250" x2="500" y2="250"/>
	<line display="inline" fill="none" stroke="#B35047" x1="0" y1="275" x2="500" y2="275"/>
	<line display="inline" fill="none" stroke="#B35047" x1="0" y1="300" x2="500" y2="300"/>
	<line display="inline" fill="none" stroke="#B35047" x1="0" y1="325" x2="500" y2="325"/>
	<line display="inline" fill="none" stroke="#B35047" x1="0" y1="350" x2="500" y2="350"/>
	<line display="inline" fill="none" stroke="#B35047" x1="0" y1="375" x2="500" y2="375"/>
	<line display="inline" fill="none" stroke="#B35047" x1="0" y1="400" x2="500" y2="400"/>
	<line display="inline" fill="none" stroke="#B35047" x1="0" y1="425" x2="500" y2="425"/>
	<line display="inline" fill="none" stroke="#B35047" x1="0" y1="450" x2="500" y2="450"/>
	<line display="inline" fill="none" stroke="#B35047" x1="0" y1="475" x2="500" y2="475"/>
	<rect display="inline" fill="none" stroke="#B35047" width="500" height="500"/>
</g>
<path d="M134.572,175.06c4.9-0.012,9.631,0.707,14.071,2.086c16.774-18.886,35.38-36.095,55.527-51.358
	c-0.838-3.533-1.359-7.237-1.369-11.064c-0.013-5.314,0.852-10.387,2.449-15.121c-22.639-16.179-47.295-29.72-73.455-40.186
	c-24.511,15.225-45.841,35.049-62.823,58.251c12.708,22.372,27.826,43.226,44.963,62.222
	C120.193,176.827,127.185,175.078,134.572,175.06z"/>
<path d="M250.389,66.871c12.628-0.032,24.049,4.864,32.601,12.814c24.863-10.764,51.073-19.046,78.339-24.355
	c-32.982-18.883-71.161-29.709-111.897-29.607c-27.767,0.07-54.326,5.231-78.827,14.532c19.502,9.58,38.106,20.723,55.568,33.356
	C233.282,69.377,241.54,66.894,250.389,66.871z"/>
<path d="M86.984,222.887c-0.017-6.68,1.357-13.07,3.829-18.854c-15.327-16.782-29.268-34.885-41.481-54.211
	c-15.16,30.316-23.704,64.54-23.613,100.741c0.105,41.955,11.759,81.15,31.882,114.668c7.042-40.364,20.549-78.549,39.208-113.554
	C90.693,243.697,87.011,233.736,86.984,222.887z"/>
<path d="M438.415,128.34c-10.756-16.62-23.637-31.732-38.278-44.926c-35.925,3.552-70.226,12.658-102.152,26.292
	c0.199,1.56,0.276,3.169,0.28,4.777c0.019,7.533-1.494,14.76-4.847,20.953c-3.974,7.339-10.186,17.144-24.15,23.049
	c-6.018,2.545-12.009,3.809-18.64,3.825c-10.336,0.026-19.901-3.29-27.74-8.853c-17.275,13.183-33.23,27.972-47.744,44.098
	c4.553,7.278,7.231,15.852,7.255,25.091c0.031,12.157-4.15,24.214-13.012,32.711c-7.448,7.141-15.646,12.895-26.021,14.509
	c-2.805,0.436-5.693,0.624-8.531,0.632c-3.364,0.008-6.607-0.349-9.778-0.999c-21.278,40.619-34.84,85.899-38.669,133.836
	c9.755,10.404,20.494,19.868,32.057,28.266l-0.028,0.028c25.907,19.09,55.056,31.797,85.312,38.151V344.266l-63.643,0.017
	l109.947-126.319l109.913,126.303l-63.759,0.017c0,0,0.014,125.379,0.014,125.381c0-0.405,24.217-6.55,26.47-7.321
	c8.934-3.058,17.683-6.69,26.153-10.864c17.093-8.423,33.383-19.178,47.781-31.67c9.818-8.518,18.895-17.929,27.119-27.994
	c0.275-0.336,0.546-0.675,0.819-1.013C486.111,314.74,490.759,208.184,438.415,128.34z"/>
</svg>
