<?xml version="1.0" encoding="utf-8"?>
<!-- Generated by IcoMoon.io -->
<!DOCTYPE svg PUBLIC "-//W3C//DTD SVG 1.1//EN" "http://www.w3.org/Graphics/SVG/1.1/DTD/svg11.dtd">
<svg version="1.1" xmlns="http://www.w3.org/2000/svg" xmlns:xlink="http://www.w3.org/1999/xlink" width="32" height="32" viewBox="0 0 32 32">
<g id="icomoon-ignore">
	<line stroke-width="1" x1="" y1="" x2="" y2="" stroke="#449FDB" opacity=""></line>
</g>
	<path d="M13.333 1.333h5.333q1.656 0 2.828 1.172t1.172 2.828v1.333h5.333q0.552 0 0.943 0.391t0.391 0.943-0.391 0.943-0.943 0.391h-1.333v16q0 1.656-1.172 2.828t-2.828 1.172h-13.333q-1.656 0-2.828-1.172t-1.172-2.828v-16h-1.333q-0.552 0-0.943-0.391t-0.391-0.943 0.391-0.943 0.943-0.391h5.333v-1.333q0-1.656 1.172-2.828t2.828-1.172zM24 25.333v-16h-16v16q0 0.552 0.391 0.943t0.943 0.391h13.333q0.552 0 0.943-0.391t0.391-0.943zM18.667 4h-5.333q-0.552 0-0.943 0.391t-0.391 0.943v1.333h8v-1.333q0-0.552-0.391-0.943t-0.943-0.391z" fill="#000000"></path>
</svg>
