<?xml version="1.0" encoding="utf-8"?>
<!-- Generated by IcoMoon.io -->
<!DOCTYPE svg PUBLIC "-//W3C//DTD SVG 1.1//EN" "http://www.w3.org/Graphics/SVG/1.1/DTD/svg11.dtd">
<svg version="1.1" xmlns="http://www.w3.org/2000/svg" xmlns:xlink="http://www.w3.org/1999/xlink" width="32" height="32" viewBox="0 0 32 32">
<g id="icomoon-ignore">
	<line stroke-width="1" x1="" y1="" x2="" y2="" stroke="#449FDB" opacity=""></line>
</g>
	<path d="M5.333 4h21.333q1.656 0 2.828 1.172t1.172 2.828v16q0 1.656-1.172 2.828t-2.828 1.172h-21.333q-1.656 0-2.828-1.172t-1.172-2.828v-16q0-1.656 1.172-2.828t2.828-1.172zM28 24v-14.563l-11.167 8.938q-0.354 0.292-0.833 0.292t-0.833-0.292l-11.167-8.938v14.563q0 0.552 0.391 0.943t0.943 0.391h21.333q0.552 0 0.943-0.391t0.391-0.943zM26.667 6.667h-21.333q-0.198 0-0.438 0.073l11.104 8.885 11.104-8.885q-0.24-0.073-0.438-0.073z" fill="#000000"></path>
</svg>
