<svg version="1.1" xmlns="http://www.w3.org/2000/svg" xmlns:xlink="http://www.w3.org/1999/xlink" width="32" height="32" viewBox="0 0 32 32">
  <path d="M16,28 L16,28 C22.627417,28 28,22.627417 28,16 C28,9.372583 22.627417,4 16,4 C9.372583,4 4,9.372583 4,16 C4,22.627417 9.372583,28 16,28 L16,28 L16,28 Z M16,30 L16,30 C8.2680135,30 2,23.7319865 2,16 C2,8.2680135 8.2680135,2 16,2 C23.7319865,2 30,8.2680135 30,16 C30,23.7319865 23.7319865,30 16,30 L16,30 L16,30 Z"></path>
  <path d="M2.39692848,17.2938571 C2.51900453,17.3860323 2.73279792,17.5359377 3.02708665,17.7243526 C3.51002815,18.0335502 4.05014468,18.3418465 4.63680259,18.6298512 C6.68961434,19.637627 8.78402492,20.1580821 10.796026,19.9078559 C11.0052476,19.8818356 11.2123391,19.8473516 11.4171433,19.8041922 C15.9037198,18.8587147 17.7329845,14.1897319 14.3039853,12.5974141 C12.6979815,11.8516372 12.6977556,9.93244878 14.7148526,9.3963843 C15.6593673,9.14536971 16.3693876,9.37323011 17.6413961,10.1821344 C18.7602688,10.8936555 18.8454358,10.9444496 19.3325222,11.1351323 C20.3049534,11.5158159 21.2416768,11.4530933 22.1456704,10.8405426 C23.1588807,10.153986 23.7182529,9.12196821 23.9018115,7.88879015 C24.0321244,7.01332641 23.967458,6.10673543 23.7835276,5.22963905 C23.7134924,4.89566684 23.6417603,4.63832917 23.5892104,4.48084192 L21.6920396,5.11388464 C21.7215851,5.20242978 21.7729961,5.38686593 21.826104,5.64011803 C21.9654464,6.30459043 22.0140852,6.9864823 21.9236064,7.59433415 C21.8167235,8.31239131 21.529627,8.84207215 21.0237632,9.18484805 C20.6947217,9.40780831 20.4486683,9.42428395 20.0615984,9.27275533 C19.7545521,9.15255401 19.6725011,9.10361838 18.7146223,8.49447757 C17.013447,7.41265465 15.8261427,7.03162376 14.201163,7.46347899 C10.2569252,8.51170112 10.2574445,12.923449 13.4616397,14.411375 C14.7636948,15.0160078 13.8929305,17.2385311 11.0047317,17.8471749 C10.8551812,17.8786904 10.7033221,17.9039774 10.5491938,17.9231458 C8.98805185,18.1173002 7.252784,17.686091 5.51817137,16.834527 C5.00299041,16.581612 4.5277579,16.3103513 4.10547873,16.0399921 C3.85663507,15.8806728 3.68470162,15.7601183 3.60209495,15.697745 L2.39692848,17.2938571 Z M28.2200839,20.6126797 C27.7942389,20.3278048 27.0750567,19.9177183 26.1479463,19.5095697 C24.5848316,18.8214283 22.9949866,18.4057617 21.4516603,18.4057617 C17.9808401,18.4057617 16.6391582,20.5485469 17.3550669,23.3636522 C17.5482131,24.1231442 17.5051524,24.2941648 17.1784929,24.6077674 C17.0528848,24.7283548 16.4019419,25.2708594 16.2841763,25.374363 C15.5551995,26.0150564 15.0602329,26.8106424 14.9951509,27.5655333 C14.8984174,28.6875518 15.7241901,29.4438481 16.9443363,29.4438477 L16.9443356,27.4438477 C16.8299033,27.4438477 16.8141248,27.4390147 16.8607213,27.4816908 C16.9555938,27.5685812 16.9926564,27.6805216 16.9877593,27.7373236 C17.0021027,27.5709528 17.2284706,27.2070998 17.6044956,26.8766136 C17.6757467,26.8139914 18.3776661,26.2290023 18.5635782,26.0505212 C19.4280197,25.2206325 19.6583436,24.3058747 19.2933704,22.8707228 C18.8767839,21.2326161 19.3945099,20.4057617 21.4516603,20.4057617 C22.6783841,20.4057617 24.0117721,20.7543774 25.3421051,21.3400396 C25.8151581,21.5482952 26.2530186,21.7715976 26.6432192,21.9940947 C26.8729097,22.125067 27.0318377,22.2240383 27.1080411,22.2750156 L28.2200839,20.6126797 Z"></path>
</svg>
