<?xml version="1.0" encoding="utf-8"?>
<!-- Generated by IcoMoon.io -->
<!DOCTYPE svg PUBLIC "-//W3C//DTD SVG 1.1//EN" "http://www.w3.org/Graphics/SVG/1.1/DTD/svg11.dtd">
<svg version="1.1" xmlns="http://www.w3.org/2000/svg" xmlns:xlink="http://www.w3.org/1999/xlink" width="32" height="32" viewBox="0 0 32 32">
<g id="icomoon-ignore">
	<line stroke-width="1" x1="" y1="" x2="" y2="" stroke="#449FDB" opacity=""></line>
</g>
	<path d="M18.683 7.554c-0.229-0.229-0.5-0.342-0.825-0.342-0.321 0-0.596 0.112-0.825 0.342s-0.342 0.5-0.342 0.825v6.983c0 0.329 0.113 0.604 0.337 0.829l3.492 3.492c0.225 0.225 0.5 0.337 0.829 0.337s0.604-0.113 0.829-0.337c0.225-0.225 0.337-0.5 0.337-0.829s-0.113-0.604-0.337-0.829l-3.154-3.146v-6.504c0-0.321-0.113-0.596-0.342-0.821zM29.654 10.383c-0.675-1.579-1.587-2.942-2.729-4.083s-2.504-2.054-4.083-2.729c-1.579-0.675-3.238-1.013-4.979-1.013s-3.4 0.337-4.979 1.013-2.942 1.588-4.083 2.729c-0.483 0.483-0.921 1.004-1.321 1.563-0.546 0.767-1.017 1.608-1.408 2.521-0.475 1.108-0.925 2.975-0.925 4.612 0 0.217 0 0.367 0 0.367l-1.862-1.863c-0.229-0.229-0.5-0.342-0.825-0.342-0.321 0-0.596 0.113-0.825 0.342s-0.342 0.5-0.342 0.825c0 0.321 0.113 0.596 0.342 0.825l3.85 3.85c0.229 0.229 0.5 0.342 0.825 0.342 0.321 0 0.596-0.113 0.825-0.342l3.85-3.85c0.229-0.229 0.342-0.5 0.342-0.825 0-0.321-0.113-0.596-0.342-0.825s-0.5-0.342-0.825-0.342c-0.321 0-0.596 0.113-0.825 0.342l-1.862 1.863v-0.425c0-1.508 0.371-2.779 0.742-3.646 0.554-1.296 1.3-2.408 2.233-3.342s2.050-1.679 3.342-2.233c1.296-0.554 2.65-0.833 4.071-0.833s2.775 0.279 4.071 0.833 2.408 1.3 3.342 2.233 1.679 2.050 2.233 3.342 0.833 2.65 0.833 4.071-0.279 2.775-0.833 4.071c-0.554 1.296-1.3 2.408-2.233 3.342s-2.050 1.679-3.342 2.233c-0.971 0.417-1.975 0.675-3.017 0.779-0.596 0.058-1.054 0.554-1.054 1.154v0.008c0 0.683 0.587 1.221 1.267 1.154 1.283-0.125 2.521-0.442 3.712-0.954 1.579-0.675 2.942-1.587 4.083-2.729s2.054-2.504 2.729-4.083c0.675-1.579 1.012-3.238 1.012-4.979s-0.333-3.396-1.008-4.975z" fill="#000000"></path>
</svg>
