<?xml version="1.0" encoding="utf-8"?>
<!-- Generated by IcoMoon.io -->
<!DOCTYPE svg PUBLIC "-//W3C//DTD SVG 1.1//EN" "http://www.w3.org/Graphics/SVG/1.1/DTD/svg11.dtd">
<svg version="1.1" xmlns="http://www.w3.org/2000/svg" xmlns:xlink="http://www.w3.org/1999/xlink" width="32" height="32" viewBox="0 0 32 32">
<g id="icomoon-ignore">
	<line stroke-width="1" x1="" y1="" x2="" y2="" stroke="#449FDB" opacity=""></line>
</g>
	<path d="M12 0h13.333q1.656 0 2.828 1.172t1.172 2.828v18.667q0 1.656-1.172 2.828t-2.828 1.172h-13.333q-1.656 0-2.828-1.172t-1.172-2.828v-18.667q0-1.656 1.172-2.828t2.828-1.172zM5.333 5.563v22.438q0 0.552 0.391 0.943t0.943 0.391h17.104q-0.417 1.177-1.448 1.922t-2.323 0.745h-13.333q-1.656 0-2.828-1.172t-1.172-2.828v-18.667q0-1.292 0.745-2.323t1.922-1.448zM25.333 2.667h-13.333q-0.552 0-0.943 0.391t-0.391 0.943v18.667q0 0.552 0.391 0.943t0.943 0.391h13.333q0.552 0 0.943-0.391t0.391-0.943v-18.667q0-0.552-0.391-0.943t-0.943-0.391z" fill="#000000"></path>
</svg>
