<?xml version="1.0" encoding="utf-8"?>
<!-- Generated by IcoMoon.io -->
<!DOCTYPE svg PUBLIC "-//W3C//DTD SVG 1.1//EN" "http://www.w3.org/Graphics/SVG/1.1/DTD/svg11.dtd">
<svg version="1.1" xmlns="http://www.w3.org/2000/svg" xmlns:xlink="http://www.w3.org/1999/xlink" width="32" height="32" viewBox="0 0 32 32">
<g id="icomoon-ignore">
	<line stroke-width="1" x1="" y1="" x2="" y2="" stroke="#449FDB" opacity=""></line>
</g>
	<path d="M16 4q2.177 0 4.234 0.661t3.609 1.719 2.922 2.339 2.302 2.563 1.615 2.339 1.005 1.714l0.313 0.667q-0.073 0.156-0.198 0.422t-0.589 1.083-0.99 1.615-1.385 1.875-1.776 2.010-2.172 1.88-2.573 1.609-2.964 1.083-3.354 0.422q-2.177 0-4.234-0.661t-3.609-1.714-2.922-2.323-2.302-2.547-1.615-2.328-1.005-1.719l-0.313-0.656q0.073-0.156 0.198-0.422t0.589-1.089 0.99-1.62 1.385-1.885 1.776-2.021 2.172-1.885 2.573-1.62 2.964-1.089 3.354-0.422zM16 6.667q-1.458 0-2.865 0.385t-2.536 0.995-2.208 1.474-1.865 1.703-1.526 1.802-1.177 1.651-0.823 1.375q0.385 0.677 0.823 1.359t1.177 1.635 1.526 1.781 1.865 1.682 2.208 1.458 2.536 0.984 2.865 0.38 2.865-0.385 2.536-0.99 2.208-1.464 1.865-1.693 1.526-1.792 1.177-1.646 0.823-1.365q-0.385-0.677-0.823-1.365t-1.177-1.646-1.526-1.792-1.865-1.693-2.208-1.464-2.536-0.99-2.865-0.385zM16 10.667q2.208 0 3.771 1.563t1.563 3.771-1.563 3.771-3.771 1.563-3.771-1.563-1.563-3.771 1.563-3.771 3.771-1.563zM16 13.333q-1.104 0-1.885 0.781t-0.781 1.885 0.781 1.885 1.885 0.781 1.885-0.781 0.781-1.885-0.781-1.885-1.885-0.781z" fill="#000000"></path>
</svg>
