<?xml version="1.0" encoding="utf-8"?>
<!-- Generated by IcoMoon.io -->
<!DOCTYPE svg PUBLIC "-//W3C//DTD SVG 1.1//EN" "http://www.w3.org/Graphics/SVG/1.1/DTD/svg11.dtd">
<svg version="1.1" xmlns="http://www.w3.org/2000/svg" xmlns:xlink="http://www.w3.org/1999/xlink" width="32" height="32" viewBox="0 0 32 32">
<g id="icomoon-ignore">
	<line stroke-width="1" x1="" y1="" x2="" y2="" stroke="#449FDB" opacity=""></line>
</g>
	<path d="M21.063 0q1.302 0 2.5 0.49 1.25 0.5 2.208 1.458 0.969 0.979 1.458 2.198 0.479 1.177 0.479 2.5t-0.479 2.5q-0.49 1.219-1.458 2.198l-12.271 12.271q-0.563 0.563-1.333 0.885-0.75 0.292-1.5 0.292t-1.5-0.292q-0.771-0.323-1.333-0.885-0.583-0.583-0.875-1.323-0.292-0.708-0.292-1.5 0-0.802 0.292-1.51 0.292-0.729 0.875-1.323l11.323-11.313q0.396-0.396 0.948-0.396 0.542 0 0.938 0.396t0.396 0.938q0 0.552-0.396 0.948l-11.323 11.313q-0.385 0.385-0.385 0.948 0 0.552 0.385 0.938 0.417 0.396 0.948 0.396t0.948-0.396l12.271-12.271q1.156-1.156 1.156-2.813t-1.156-2.813q-1.188-1.167-2.823-1.167-1.646 0-2.813 1.167l-12.302 12.24q-0.958 0.958-1.458 2.208-0.49 1.198-0.49 2.51 0 1.292 0.49 2.51 0.5 1.24 1.458 2.198 0.99 0.979 2.208 1.469t2.51 0.49 2.51-0.49 2.208-1.469l12.25-12.25q0.396-0.396 0.948-0.396 0.542 0 0.938 0.396t0.396 0.938q0 0.552-0.396 0.948l-12.25 12.25q-1.344 1.344-3.094 2.052-1.667 0.688-3.51 0.688-1.833 0-3.51-0.688-1.75-0.708-3.094-2.052-1.333-1.333-2.042-3.083-0.688-1.688-0.688-3.51 0-1.833 0.688-3.51 0.698-1.729 2.042-3.094h0.010l12.292-12.24q0.958-0.958 2.198-1.458 1.219-0.49 2.5-0.49z" fill="#000000"></path>
</svg>
