<?xml version="1.0" encoding="utf-8"?>
<!-- Generated by IcoMoon.io -->
<!DOCTYPE svg PUBLIC "-//W3C//DTD SVG 1.1//EN" "http://www.w3.org/Graphics/SVG/1.1/DTD/svg11.dtd">
<svg version="1.1" xmlns="http://www.w3.org/2000/svg" xmlns:xlink="http://www.w3.org/1999/xlink" width="32" height="32" viewBox="0 0 32 32">
<g id="icomoon-ignore">
	<line stroke-width="1" x1="" y1="" x2="" y2="" stroke="#449FDB" opacity=""></line>
</g>
	<path d="M22.667 5.333q0.552 0 0.943 0.391t0.391 0.943q0 0.563-0.385 0.948l-8.396 8.385 8.396 8.396q0.385 0.385 0.385 0.948 0 0.552-0.391 0.938t-0.943 0.385q-0.563 0-0.948-0.385l-9.333-9.333q-0.385-0.406-0.385-0.948 0-0.531 0.385-0.938l9.333-9.333q0.396-0.396 0.948-0.396zM8 5.333q0.552 0 0.943 0.391t0.391 0.943v18.667q0 0.552-0.391 0.943t-0.943 0.391-0.943-0.391-0.391-0.943v-18.667q0-0.552 0.391-0.943t0.943-0.391z" fill="#000000"></path>
</svg>
