<?xml version="1.0" encoding="utf-8"?>
<!-- Generated by IcoMoon.io -->
<!DOCTYPE svg PUBLIC "-//W3C//DTD SVG 1.1//EN" "http://www.w3.org/Graphics/SVG/1.1/DTD/svg11.dtd">
<svg version="1.1" xmlns="http://www.w3.org/2000/svg" xmlns:xlink="http://www.w3.org/1999/xlink" width="32" height="32" viewBox="0 0 32 32">
<g id="icomoon-ignore">
	<line stroke-width="1" x1="" y1="" x2="" y2="" stroke="#449FDB" opacity=""></line>
</g>
	<path d="M25.696 21.35c-0.117 0.071-0.25 0.129-0.413 0.179-0.158 0.046-0.329 0.046-0.508-0.008s-0.35-0.163-0.517-0.329c-0.212-0.212-0.325-0.467-0.342-0.771-0.017-0.3 0.071-0.567 0.262-0.8 0.829-1.012 1.45-2.137 1.858-3.371s0.579-2.508 0.517-3.817c-0.050-1.287-0.337-2.525-0.858-3.713-0.538-1.229-1.279-2.317-2.225-3.263-1.017-1.017-2.179-1.792-3.492-2.321-1.242-0.504-2.571-0.767-3.983-0.779-1.412 0.013-2.742 0.271-3.983 0.779-1.308 0.529-2.471 1.304-3.488 2.321-0.946 0.946-1.688 2.033-2.225 3.263-0.521 1.183-0.804 2.421-0.858 3.713-0.067 1.313 0.108 2.583 0.517 3.817s1.029 2.358 1.858 3.371c0.192 0.233 0.279 0.5 0.262 0.8s-0.129 0.558-0.342 0.771c-0.25 0.25-0.55 0.367-0.892 0.346-0.346-0.021-0.629-0.163-0.854-0.433-1.008-1.233-1.763-2.604-2.263-4.117s-0.712-3.067-0.638-4.662c0.075-1.571 0.425-3.083 1.050-4.542 0.654-1.5 1.558-2.829 2.717-3.992 1.242-1.242 2.667-2.188 4.275-2.833 1.512-0.621 3.133-0.942 4.858-0.954 1.725 0.013 3.346 0.329 4.858 0.954 1.608 0.65 3.033 1.596 4.275 2.833 1.158 1.158 2.067 2.487 2.717 3.992 0.629 1.458 0.979 2.971 1.050 4.542 0.075 1.596-0.137 3.15-0.637 4.662s-1.254 2.883-2.262 4.117c-0.079 0.092-0.179 0.175-0.296 0.246zM16 30.717c-0.325 0-0.6-0.117-0.829-0.346l-4.983-4.983c-0.229-0.229-0.346-0.504-0.346-0.829s0.117-0.6 0.346-0.829 0.504-0.346 0.829-0.346 0.6 0.117 0.829 0.346l2.979 2.979-0.008-13.775c0-0.321 0.117-0.596 0.35-0.829 0.238-0.238 0.517-0.358 0.829-0.358 0.317 0 0.592 0.121 0.829 0.358 0.233 0.233 0.35 0.508 0.346 0.825v13.779l2.979-2.979c0.229-0.229 0.504-0.346 0.829-0.346s0.6 0.117 0.829 0.346c0.229 0.229 0.346 0.504 0.346 0.829s-0.117 0.6-0.346 0.829l-4.979 4.983c-0.229 0.229-0.504 0.346-0.829 0.346z" fill="#000000"></path>
</svg>
