<svg width="32px" height="32px" viewBox="0 0 32 32" version="1.1" xmlns="http://www.w3.org/2000/svg" xmlns:xlink="http://www.w3.org/1999/xlink" xmlns:sketch="http://www.bohemiancoding.com/sketch/ns">
  <defs>
    <path id="path-1" d="M0.000298510068,13.7358491 C0.000301187627,21.288553 6.12183933,27.4326957 13.6530214,27.4326957 C21.1842036,27.4326957 27.3057417,21.288553 27.3057443,13.7358491 C27.3057417,6.18317193 21.1842036,0.0390292237 13.6530214,0.0390292237 C6.12183933,0.0390292237 0.000301187627,6.18317193 0.000298510068,13.7358491 Z"></path>
  </defs>
  <rect id="Icon" opacity="0" x="0" y="0" width="32" height="32"></rect>
  <path d="M16.2699246,2.2956635 C8.74007047,2.2956635 2.61855648,8.4400473 2.61855648,15.9912243 C2.61855648,23.5424282 8.74007047,29.686812 16.2699246,29.686812 C23.7997813,29.686812 29.9212926,23.5424282 29.9212953,15.9912243 C29.9212926,8.4400473 23.7997813,2.2956635 16.2699246,2.2956635 L16.2699246,2.2956635 Z M16.2699246,4.64313472 C22.5563227,4.64313472 27.6357172,9.73839047 27.6357199,16.0507848 C27.6357172,22.3632059 22.5563227,27.4584617 16.2699246,27.4584617 C9.98352639,27.4584617 4.90413192,22.3632059 4.90413192,16.0507848 C4.90413192,9.73839047 9.98352639,4.64313472 16.2699246,4.64313472 L16.2699246,4.64313472 Z" id="Circle"></path>
  <g id="Shadow" transform="translate(2.616903, 2.195815)">
    <mask id="mask-2">
      <use xlink:href="#path-1"></use>
    </mask>
    <g id="shadow-mask"></g>
    <path d="M22.0171361,12.1871095 C22.0171361,12.1871095 19.3200653,15.4961823 16.7016987,20.0875405 L26.8358166,30.7227494 C26.8358166,30.7227494 17.3307832,26.1924129 7.46976022,20.6230204 C9.2350591,17.5609273 11.5831341,14.4622695 11.5831341,14.4622695 C11.5831341,14.4622695 6.7897458,12.5101654 0.271104193,9.05941409 C3.10125506,4.79070997 6.58372899,1.25662313 6.58372899,1.25662313 C6.58372899,1.25662313 13.7645846,6.73651899 22.0171361,12.1871095 L22.0171361,12.1871095 Z" id="z-shadow" opacity="0.1" fill="#000000" mask="url(#mask-2)"></path>
  </g>
  <path d="M18.4397411,19.902653 L28.5738591,30.537862 C28.5738591,30.537862 19.0688256,26.0075254 9.20780262,20.4381329 C10.9731015,17.3760398 13.3211766,14.277382 13.3211766,14.277382 C13.3211766,14.277382 8.5277882,12.3252779 2.00914663,8.87452662 C4.83929749,4.6058225 8.32177146,1.07173567 8.32177146,1.07173567 C8.32177146,1.07173567 15.5026271,6.55163154 23.7551785,12.002222 C23.7551785,12.002222 21.0581077,15.3112948 18.4397411,19.902653 Z" id="Z"></path>
</svg>
