<svg width="32" height="32" viewBox="0 0 32 32">
  <path id="icomoon-ignore" d="M0,0"/>
  <path d="M26.666,11.333c0,0.367 -0.13,0.679 -0.384,0.938l-9.333,9.334c-0.261,0.262 -0.578,0.396 -0.949,0.396c-0.371,0 -0.683,-0.134 -0.95,-0.396l-9.333,-9.334c-0.258,-0.258 -0.383,-0.571 -0.383,-0.938c0,-0.367 0.129,-0.683 0.392,-0.942c0.263,-0.259 0.575,-0.392 0.942,-0.392c0.375,0 0.692,0.129 0.95,0.383l8.383,8.388l8.382,-8.383c0.258,-0.258 0.575,-0.383 0.95,-0.383c0.383,0 0.7,0.125 0.954,0.379c0.254,0.254 0.379,0.567 0.379,0.95l-0.001,0Z" fill="#000000"/>
</svg>
