<?xml version="1.0" encoding="utf-8"?>
<!-- Generated by IcoMoon.io -->
<!DOCTYPE svg PUBLIC "-//W3C//DTD SVG 1.1//EN" "http://www.w3.org/Graphics/SVG/1.1/DTD/svg11.dtd">
<svg version="1.1" xmlns="http://www.w3.org/2000/svg" xmlns:xlink="http://www.w3.org/1999/xlink" width="32" height="32" viewBox="0 0 32 32">
<g id="icomoon-ignore">
	<line stroke-width="1" x1="" y1="" x2="" y2="" stroke="#449FDB" opacity=""></line>
</g>
	<path d="M8 4h16l8 8v12q0 1.656-1.172 2.828t-2.828 1.172h-24q-1.656 0-2.828-1.172t-1.172-2.828v-12zM29.333 24v-9.333h-5.854q-0.885 2.313-2.953 3.823t-4.526 1.51q-1.635 0-3.177-0.698t-2.688-1.911-1.719-2.724h-5.75v9.333q0 0.542 0.385 0.938t0.948 0.396h24q0.552 0 0.943-0.391t0.391-0.943zM28.229 12l-5.281-5.333h-13.844l-5.333 5.333h6.896q0 1.323 0.708 2.552t1.953 2.005 2.672 0.776 2.672-0.776 1.953-2.005 0.708-2.552h6.896z" fill="#000000"></path>
</svg>
