<?xml version="1.0" encoding="utf-8"?>
<!-- Generated by IcoMoon.io -->
<!DOCTYPE svg PUBLIC "-//W3C//DTD SVG 1.1//EN" "http://www.w3.org/Graphics/SVG/1.1/DTD/svg11.dtd">
<svg version="1.1" xmlns="http://www.w3.org/2000/svg" xmlns:xlink="http://www.w3.org/1999/xlink" width="32" height="32" viewBox="0 0 32 32">
<g id="icomoon-ignore">
	<line stroke-width="1" x1="" y1="" x2="" y2="" stroke="#449FDB" opacity=""></line>
</g>
	<path d="M21.988 5.638c0.071 0.117 0.129 0.25 0.179 0.412s0.046 0.329-0.008 0.508c-0.054 0.179-0.163 0.35-0.329 0.517-0.212 0.213-0.467 0.325-0.771 0.342s-0.567-0.071-0.8-0.263c-1.012-0.829-2.137-1.45-3.371-1.858s-2.508-0.579-3.817-0.517c-1.287 0.050-2.525 0.338-3.713 0.858-1.229 0.537-2.317 1.279-3.263 2.225-1.017 1.017-1.792 2.179-2.321 3.492-0.504 1.242-0.767 2.571-0.779 3.983 0.013 1.412 0.271 2.742 0.779 3.983 0.533 1.313 1.304 2.475 2.321 3.492 0.946 0.946 2.033 1.688 3.263 2.225 1.183 0.521 2.421 0.804 3.713 0.858 1.313 0.067 2.583-0.108 3.817-0.517s2.358-1.029 3.371-1.858c0.233-0.192 0.5-0.279 0.8-0.262s0.558 0.129 0.771 0.342c0.25 0.25 0.367 0.55 0.346 0.892-0.021 0.346-0.163 0.629-0.433 0.854-1.233 1.008-2.604 1.762-4.117 2.262s-3.067 0.712-4.662 0.637c-1.571-0.075-3.083-0.425-4.542-1.050-1.5-0.654-2.829-1.558-3.992-2.717-1.242-1.242-2.188-2.667-2.833-4.275-0.617-1.525-0.938-3.146-0.95-4.871 0.012-1.725 0.329-3.346 0.954-4.858 0.65-1.608 1.596-3.033 2.833-4.275 1.158-1.158 2.487-2.067 3.992-2.717 1.458-0.629 2.971-0.979 4.542-1.050 1.596-0.075 3.15 0.138 4.663 0.638s2.883 1.254 4.117 2.263c0.092 0.088 0.171 0.188 0.242 0.304zM31.354 15.333c0 0.325-0.117 0.6-0.346 0.829l-4.983 4.983c-0.229 0.229-0.504 0.346-0.829 0.346s-0.6-0.117-0.829-0.346-0.346-0.504-0.346-0.829c0-0.325 0.117-0.6 0.346-0.829l2.979-2.979-13.775 0.008c-0.321 0-0.596-0.117-0.829-0.35-0.238-0.238-0.358-0.517-0.358-0.829s0.121-0.592 0.358-0.829c0.233-0.233 0.508-0.35 0.825-0.346h13.779l-2.979-2.979c-0.229-0.229-0.346-0.504-0.346-0.829s0.117-0.6 0.346-0.829 0.504-0.346 0.829-0.346c0.325 0 0.6 0.117 0.829 0.346l4.983 4.983c0.229 0.225 0.346 0.5 0.346 0.825z" fill="#000000"></path>
</svg>
