<?xml version="1.0" encoding="utf-8"?>
<!-- Generated by IcoMoon.io -->
<!DOCTYPE svg PUBLIC "-//W3C//DTD SVG 1.1//EN" "http://www.w3.org/Graphics/SVG/1.1/DTD/svg11.dtd">
<svg version="1.1" xmlns="http://www.w3.org/2000/svg" xmlns:xlink="http://www.w3.org/1999/xlink" width="32" height="32" viewBox="0 0 32 32">
<g id="icomoon-ignore">
	<line stroke-width="1" x1="" y1="" x2="" y2="" stroke="#449FDB" opacity=""></line>
</g>
	<path d="M5.014 10.357c1.494-1.16 2.733-0.362 4.386 1.552 0.187 0.214 0.437-0.037 0.578-0.16 0.141-0.125 2.323-2.086 2.429-2.178 0.107-0.094 0.235-0.27 0.066-0.467s-0.79-1-1.189-1.52c-2.893-3.784 7.914-6.35 6.253-6.39-0.843-0.022-4.234-0.061-4.739-0.008-2.053 0.218-4.63 2.136-5.928 3.029-1.696 1.166-2.331 1.843-2.435 1.938-0.48 0.421-0.077 1.387-0.947 2.15-0.92 0.806-1.493 0.197-2.026 0.664-0.266 0.234-1.003 0.786-1.216 0.973-0.211 0.186-0.25 0.501-0.034 0.754 0 0 2.021 2.234 2.192 2.43 0.17 0.197 0.626 0.363 0.909 0.114 0.283-0.248 1.010-0.886 1.133-0.995 0.125-0.107-0.080-1.381 0.57-1.885zM14.149 11.183c-0.192-0.222-0.429-0.227-0.635-0.045l-2.296 2.002c-0.179 0.16-0.203 0.454-0.042 0.64l13.27 15.101c0.309 0.358 0.846 0.395 1.203 0.085l1.554-1.299c0.354-0.31 0.39-0.854 0.082-1.211l-13.136-15.272zM31.843 4.756c-0.118-0.79-0.528-0.624-0.741-0.288-0.21 0.334-1.154 1.762-1.541 2.406-0.384 0.643-1.328 1.906-3.094 0.659-1.837-1.299-1.197-2.206-0.878-2.816 0.322-0.613 1.309-2.328 1.453-2.544 0.141-0.216-0.026-0.843-0.594-0.581-0.571 0.264-4.037 1.642-4.518 3.616-0.491 2.011 0.413 3.806-1.36 5.59l-2.147 2.24 2.157 2.509 2.646-2.514c0.632-0.634 1.978-1.25 3.197-0.973 2.613 0.592 4.037-0.39 4.898-2.011 0.771-1.451 0.643-4.504 0.523-5.294zM4.384 26.615c-0.333 0.336-0.333 0.88 0 1.214l1.522 1.488c0.333 0.334 0.861 0.194 1.194-0.141l7.851-7.72-2.406-2.741-8.16 7.899z" fill="#000000"></path>
</svg>
