<?xml version="1.0" encoding="utf-8"?>
<!-- Generated by IcoMoon.io -->
<!DOCTYPE svg PUBLIC "-//W3C//DTD SVG 1.1//EN" "http://www.w3.org/Graphics/SVG/1.1/DTD/svg11.dtd">
<svg version="1.1" xmlns="http://www.w3.org/2000/svg" xmlns:xlink="http://www.w3.org/1999/xlink" width="32" height="32" viewBox="0 0 32 32">
<g id="icomoon-ignore">
	<line stroke-width="1" x1="" y1="" x2="" y2="" stroke="#449FDB" opacity=""></line>
</g>
	<path d="M16 0.333c-8.284 0-15 6.716-15 15s6.716 15 15 15 15-6.716 15-15-6.716-15-15-15zM16 27.833c-6.893 0-12.5-5.607-12.5-12.5s5.607-12.5 12.5-12.5 12.5 5.607 12.5 12.5-5.608 12.5-12.5 12.5zM9.885 7.42c0 0-0.004 0.004-0.005 0.004 0 0.001 0 0.001 0 0.001-0.002 0.001-0.004 0.004-0.005 0.004-0.001 0.001-0.001 0.001-0.002 0.003-0.002 0.001-0.006 0.005-0.009 0.006-0.001 0.001-0.001 0.001-0.001 0.001-0.002 0.003-0.004 0.003-0.005 0.004l-0.002 0.001c-0.001 0.001-0.002 0.001-0.004 0.004-0.001 0-0.004 0.001-0.005 0.003 0 0-0.001 0.001-0.002 0.003-0.002 0.001-0.004 0.003-0.006 0.005 0 0-0.002 0.001-0.002 0.003-0.002 0-0.004 0.003-0.005 0.003 0 0-0.001 0.003-0.002 0.003l-0.004 0.004c-0.001 0.001-0.001 0.001-0.001 0.001-0.004 0.003-0.006 0.005-0.009 0.006v0.001c-0.002 0.001-0.005 0.003-0.006 0.005 0 0-0.001 0-0.002 0-0.001 0.003-0.004 0.004-0.005 0.005 0 0-0.001 0.001-0.002 0.003-0.005 0.003-0.009 0.006-0.014 0.009-0.001 0.001-0.001 0.001-0.001 0.001-0.002 0.001-0.005 0.004-0.006 0.006v0c-0.009 0.006-0.016 0.013-0.024 0.018v0.001c-0.134 0.109-0.266 0.219-0.395 0.334-0.008 0.006-0.015 0.013-0.021 0.019h-0.001c-0.002 0.003-0.004 0.005-0.006 0.008h-0.001c-0.005 0.004-0.009 0.008-0.014 0.013h-0.001c-0.001 0.003-0.004 0.005-0.005 0.006 0 0.001-0.001 0.001-0.001 0.001-0.002 0.003-0.004 0.004-0.006 0.005v0.001c-0.002 0-0.005 0.003-0.008 0.005 0 0-0.001 0-0.001 0.001l-0.005 0.005c-0.001 0.001-0.001 0.001-0.001 0.001-0.002 0.003-0.005 0.004-0.005 0.004-0.002 0.003-0.002 0.003-0.002 0.003-0.002 0.003-0.005 0.004-0.008 0.006 0 0 0 0-0.001 0.001l-0.005 0.005c-0.001 0.001-0.001 0.001-0.001 0.001-0.002 0.003-0.004 0.004-0.006 0.005 0 0.001-0.001 0.001-0.001 0.001l-0.005 0.006c0 0-0.001 0.001-0.002 0.003s-0.002 0.003-0.005 0.004c0 0-0.002 0.003-0.002 0.004 0 0-0.002 0.001-0.004 0.003s-0.002 0.001-0.004 0.001c0 0-0.001 0.003-0.002 0.004-0.002 0.001-0.004 0.004-0.005 0.004-0.001 0.003-0.002 0.003-0.005 0.005 0 0-0.001 0.003-0.002 0.003l-0.002 0.003c-0.002 0.001-0.004 0.003-0.005 0.004 0 0.001-0.001 0.001-0.001 0.001l-0.014 0.015h-0.001c-0.001 0.002-0.002 0.004-0.005 0.005 0 0 0 0-0.001 0.001s-0.002 0.001-0.002 0.001l0.852 0.915c0.265-0.246 0.55-0.481 0.844-0.694l-0.732-1.013c-0.089 0.063-0.176 0.129-0.264 0.196zM7.694 12.572l-1.186-0.394c-0.075 0.226-0.141 0.454-0.2 0.686-0.003 0.011-0.005 0.021-0.008 0.030h-0.001c0 0.002-0.001 0.005-0.001 0.008l-0.008 0.029c-0.001 0.002-0.001 0.005-0.003 0.008 0 0 0 0 0 0.001-0.003 0.010-0.005 0.019-0.008 0.027v0.002c0 0.002-0.001 0.005-0.001 0.005v0.002c-0.003 0.008-0.004 0.015-0.006 0.023 0 0.002-0.001 0.005-0.001 0.008-0.001 0.002-0.001 0.005-0.003 0.008v0.001c-0.001 0.006-0.004 0.014-0.005 0.021 0 0 0 0 0 0.001-0.001 0.002-0.001 0.004-0.001 0.006 0 0.001 0 0.002-0.001 0.002 0 0.002-0.001 0.005-0.001 0.006v0.001c-0.001 0.008-0.004 0.014-0.005 0.021 0 0.001 0 0.001 0 0.001-0.001 0.002-0.001 0.005-0.003 0.008-0.003 0.010-0.004 0.020-0.006 0.029v0.001c-0.001 0.002-0.001 0.004-0.003 0.006v0.002c-0.003 0.010-0.004 0.020-0.006 0.027v0.001c0 0.001 0 0.004-0.001 0.006-0.001 0.008-0.003 0.015-0.005 0.023 0 0.002-0.001 0.005-0.001 0.008 0 0 0 0.001 0 0.002-0.001 0.001-0.001 0.004-0.001 0.006l-0.001 0.001c-0.001 0.010-0.004 0.020-0.006 0.029s-0.004 0.020-0.006 0.030c-0.001 0.002-0.001 0.005-0.001 0.008-0.009 0.040-0.018 0.081-0.026 0.121l1.226 0.242c0.072-0.356 0.166-0.713 0.28-1.056zM16 6.583c0.1 0 0.199 0.003 0.297 0.005l0.041-1.25c-0.084-0.003-0.168-0.004-0.254-0.005h-0.001c-0.003 0-0.006 0-0.006 0h-0.025c0 0 0 0-0.001 0h-0.009c-0.001 0-0.001 0-0.001 0h-0.021c0 0-0.001 0-0.003 0h-0.005c0 0-0.001 0-0.003 0h-0.020c0 0-0.001 0-0.002 0h-0.010c0 0-0.004 0-0.006 0 0 0-0.001 0-0.002 0h-0.006c0 0-0.001 0-0.002 0h-0.009c-0.001 0-0.001 0-0.001 0h-0.068c0 0-0.001 0-0.002 0h-0.009c-0.004 0-0.006 0-0.010 0.001h-0.010c0 0-0.001 0-0.002 0h-0.006c-0.001 0-0.002 0-0.002 0h-0.008c-0.001 0-0.001 0-0.001 0-0.008 0-0.014 0.001-0.020 0.001-0.001 0-0.001 0-0.001 0h-0.009c-0.001 0-0.001 0-0.001 0h-0.039c0 0 0 0-0.001 0h-0.009c-0.010 0-0.020 0.001-0.029 0.001-0.004 0-0.008 0-0.010 0.001h-0.050c-0.277 0.010-0.553 0.030-0.825 0.061-0.009 0.003-0.019 0.003-0.027 0.005h-0.010c-0.002 0-0.005 0.001-0.005 0.001-0.002 0-0.004 0-0.005 0.001h-0.006c-0.001 0-0.001 0-0.001 0-0.004 0-0.008 0.001-0.010 0.001-0.001 0-0.002 0.001-0.004 0.001h-0.010l-0.004 0.001h-0.004l0.155 1.24c0.361-0.045 0.729-0.067 1.094-0.067zM6.456 18.327v0.003c0.001 0.005 0.004 0.011 0.005 0.017 0.001 0.004 0.003 0.006 0.003 0.010h0.001c0.124 0.39 0.27 0.77 0.439 1.137l1.136-0.52c-0.151-0.331-0.282-0.674-0.39-1.020l-1.194 0.372zM25.594 12.501c-0.099-0.338-0.216-0.669-0.35-0.99v-0.001c-0.001-0.002-0.001-0.004-0.001-0.004l-0.001-0.004c-0.003-0.006-0.006-0.012-0.009-0.020v0c-0.001-0.001-0.003-0.004-0.003-0.006l-0.001-0.001c-0.001-0.001-0.001-0.004-0.003-0.006 0 0 0-0.001-0.001-0.002-0.001-0.002-0.003-0.005-0.004-0.009 0-0.001-0.001-0.002-0.001-0.004 0 0-0.001-0.002-0.001-0.004-0.001-0.001-0.001-0.004-0.001-0.004-0.001-0.002-0.003-0.002-0.003-0.005-0.001-0.001-0.001-0.002-0.003-0.005l-0.005-0.010c0-0.001 0-0.002 0-0.002-0.001-0.002-0.003-0.005-0.004-0.006 0 0 0-0.001 0-0.004-0.001-0.001-0.003-0.002-0.003-0.005-0.001 0-0.001-0.002-0.001-0.002l-0.004-0.008v0.001c-0.001-0.002-0.003-0.006-0.004-0.009l-0.001-0.001c0-0.001-0.001-0.004-0.003-0.006 0-0.002 0-0.002 0-0.002-0.003-0.002-0.003-0.005-0.004-0.008l-0.012-0.027c-0.003-0.008-0.005-0.012-0.008-0.019l-1.146 0.501c0.146 0.332 0.273 0.676 0.375 1.025l1.2-0.352zM24.555 17.183c-0.078 0.355-0.177 0.709-0.296 1.051l1.179 0.414c0.026-0.074 0.051-0.149 0.076-0.225l0.032-0.102c0.089-0.286 0.166-0.578 0.231-0.874l-1.223-0.264zM21.886 7.248c0 0 0-0.001 0 0-0.006-0.005-0.011-0.009-0.017-0.014h-0.003c-0.001-0.001-0.003-0.001-0.004-0.003s-0.003-0.001-0.003-0.001c-0.001-0.003-0.004-0.003-0.004-0.003-0.003-0.003-0.005-0.005-0.005-0.005-0.001-0.003-0.003-0.003-0.004-0.003-0.001-0.003-0.003-0.003-0.005-0.004 0-0.001-0.001-0.001-0.003-0.003s-0.004-0.001-0.005-0.004c0 0-0.001 0-0.003-0.001-0.003-0.001-0.005-0.004-0.008-0.005s-0.005-0.004-0.008-0.006h-0.001c-0.003-0.003-0.004-0.004-0.006-0.005l-0.001-0.001c-0.234-0.166-0.473-0.324-0.72-0.469l-0.636 1.075c0.311 0.185 0.616 0.391 0.904 0.615l0.766-0.989c-0.076-0.059-0.152-0.116-0.231-0.174-0.001 0-0.003-0.001-0.005-0.003zM13.693 10.643c0 0-1.855 7.431-1.309 9.429 0.545 1.999 2.607 3.174 4.606 2.628 1.999-0.545 3.175-2.607 2.629-4.606-0.547-1.997-5.926-7.45-5.926-7.45zM16.659 21.495c-1.33 0.365-2.705-0.42-3.069-1.751s0.418-2.706 1.751-3.071c1.331-0.364 2.706 0.42 3.070 1.753 0.365 1.33-0.419 2.705-1.753 3.070z" fill="#000000"></path>
</svg>
