<?xml version="1.0" encoding="UTF-8" standalone="no"?>
<svg width="32px" height="32px" viewBox="0 0 32 32" version="1.1" xmlns="http://www.w3.org/2000/svg" xmlns:xlink="http://www.w3.org/1999/xlink">
  <path d="M14.0028255,2.15384615 L14.0028255,2.15384615 L2.00282555,25.8461538 L26.0028255,25.8461538 L14.0028255,2.15384615 L14.0028255,2.15384615 Z M15.7586167,1.12247233 L15.7586167,1.12247233 C16.1336167,1.86285695 16.1336167,1.86285695 17.6336167,4.82439541 L21.7586167,12.9686262 C24.0086167,17.4109339 24.0086167,17.4109339 25.8836167,21.1128569 C27.3836167,24.0743954 27.3836167,24.0743954 27.7586167,24.81478 C28.4855709,26.2500485 27.5209438,28 26.0028255,28 L2.00282555,28 C0.484707277,28 -0.479919766,26.2500485 0.247034404,24.81478 L12.2470344,1.12247233 C13.0050677,-0.374157445 15.0005834,-0.374157445 15.7586167,1.12247233 L15.7586167,1.12247233 Z" id="Triangle"></path>
  <circle id="ExclamationBottom" cx="14" cy="22" r="2"></circle>
  <path d="M12,11 C12,11 12.0001101,9 14.0000551,9 C16,9 16,11 16,11 L15.1246288,18.0029699 C15.0557982,18.5536144 14.5561352,19 14,19 L14,19 C13.4477153,19 12.9433705,18.5469637 12.8753712,18.0029699 L12,11 Z" id="ExclamationTop"></path>
</svg>
