<?xml version="1.0" encoding="utf-8"?>
<!-- Generated by IcoMoon.io -->
<!DOCTYPE svg PUBLIC "-//W3C//DTD SVG 1.1//EN" "http://www.w3.org/Graphics/SVG/1.1/DTD/svg11.dtd">
<svg version="1.1" xmlns="http://www.w3.org/2000/svg" xmlns:xlink="http://www.w3.org/1999/xlink" width="32" height="32" viewBox="0 0 32 32">
<g id="icomoon-ignore">
	<line stroke-width="1" x1="" y1="" x2="" y2="" stroke="#449FDB" opacity=""></line>
</g>
	<path d="M11.333 25.333c-0.342 0-0.637-0.121-0.879-0.358l-8.75-8.75c-0.246-0.246-0.371-0.542-0.371-0.892s0.125-0.642 0.371-0.892l8.75-8.75c0.242-0.242 0.533-0.358 0.879-0.358s0.642 0.121 0.883 0.367c0.242 0.246 0.367 0.537 0.367 0.883 0 0.35-0.121 0.65-0.358 0.892l-7.862 7.858 7.858 7.858c0.242 0.242 0.358 0.538 0.358 0.892 0 0.358-0.117 0.658-0.354 0.896-0.233 0.238-0.533 0.354-0.892 0.354zM19.775 24.979c-0.238-0.238-0.354-0.533-0.354-0.896 0-0.35 0.117-0.65 0.358-0.892l7.858-7.858-7.863-7.858c-0.238-0.242-0.358-0.537-0.358-0.892 0-0.342 0.125-0.638 0.367-0.883s0.538-0.367 0.883-0.367 0.637 0.117 0.879 0.358l8.75 8.75c0.246 0.25 0.371 0.542 0.371 0.892s-0.125 0.646-0.371 0.892l-8.75 8.75c-0.242 0.238-0.533 0.358-0.879 0.358-0.358 0-0.658-0.117-0.892-0.354z" fill="#000000"></path>
</svg>
