<?xml version="1.0" encoding="utf-8"?>
<!-- Generator: Adobe Illustrator 18.0.0, SVG Export Plug-In . SVG Version: 6.00 Build 0)  -->
<!DOCTYPE svg PUBLIC "-//W3C//DTD SVG 1.1//EN" "http://www.w3.org/Graphics/SVG/1.1/DTD/svg11.dtd">
<svg version="1.1" id="Layer_1" xmlns="http://www.w3.org/2000/svg" xmlns:xlink="http://www.w3.org/1999/xlink" x="0px" y="0px"
	 viewBox="0 0 32 32" enable-background="new 0 0 32 32" xml:space="preserve">
<g id="icomoon-ignore">
	<line fill="none" stroke="#449FDB" x1="0" y1="0" x2="0" y2="0"/>
</g>
<path d="M17.3,2.7c1.7,0,3.4,0.3,5,1c1.7,0.7,3.1,1.6,4.4,2.9S29,9.3,29.7,11c0.7,1.6,1,3.3,1,5c0,1.7-0.3,3.4-1,5
	c-0.7,1.7-1.6,3.1-2.9,4.4s-2.7,2.3-4.4,2.9c-1.6,0.7-3.3,1-5,1c-1.7,0-3.4-0.3-5-1c-1.7-0.7-3.1-1.6-4.4-2.9
	c-0.7-0.7-1.3-1.4-1.8-2.3s-1-1.8-1.3-2.7c-0.1-0.3-0.1-0.7,0.1-1c0.2-0.3,0.4-0.6,0.8-0.7c0.3-0.1,0.7-0.1,1,0.1
	c0.3,0.2,0.6,0.4,0.7,0.8c0.5,1.5,1.4,2.8,2.5,4c1,1,2.2,1.8,3.5,2.3c1.3,0.5,2.6,0.8,4,0.8c1.4,0,2.7-0.3,4-0.8
	c1.3-0.5,2.5-1.3,3.5-2.3c1-1,1.8-2.2,2.3-3.5c0.5-1.3,0.8-2.6,0.8-4s-0.3-2.7-0.8-4c-0.5-1.3-1.3-2.5-2.3-3.5c-1-1-2.2-1.8-3.5-2.3
	c-1.3-0.5-2.6-0.8-4-0.8c-1.4,0-2.7,0.3-4,0.8C12,6.6,10.8,7.4,9.8,8.5C9.3,8.9,8.1,10.1,6.2,12h4.5c0.4,0,0.7,0.1,0.9,0.4
	c0.3,0.3,0.4,0.6,0.4,0.9s-0.1,0.7-0.4,0.9c-0.3,0.3-0.6,0.4-0.9,0.4h-8c-0.4,0-0.7-0.1-0.9-0.4c-0.3-0.3-0.4-0.6-0.4-0.9v-8
	c0-0.4,0.1-0.7,0.4-0.9C2,4.1,2.3,4,2.7,4C3,4,3.4,4.1,3.6,4.4C3.9,4.7,4,5,4,5.3v5.1c2.6-2.5,3.9-3.8,3.9-3.8
	c1.3-1.3,2.7-2.3,4.4-2.9C13.9,3,15.6,2.7,17.3,2.7L17.3,2.7z"/>
</svg>
