<?xml version="1.0" encoding="utf-8"?>
<!-- Generated by IcoMoon.io -->
<!DOCTYPE svg PUBLIC "-//W3C//DTD SVG 1.1//EN" "http://www.w3.org/Graphics/SVG/1.1/DTD/svg11.dtd">
<svg version="1.1" xmlns="http://www.w3.org/2000/svg" xmlns:xlink="http://www.w3.org/1999/xlink" width="32" height="32" viewBox="0 0 32 32">
<g id="icomoon-ignore">
	<line stroke-width="1" x1="" y1="" x2="" y2="" stroke="#449FDB" opacity=""></line>
</g>
	<path d="M26.333 3.442l-7.637 8.804v13.85l-5.304-3.504v-10.346l-0.662-0.762-6.971-8.042h20.575zM29.363 0.733h-26.633c-0.583 0-0.992 0.271-1.229 0.813-0.238 0.567-0.137 1.054 0.292 1.458l8.892 10.258v10.112c0 0.363 0.133 0.671 0.396 0.938l8.054 5.325c0.25 0.262 0.563 0.396 0.938 0.396 0.167 0 0.342-0.033 0.521-0.104 0.542-0.238 0.813-0.646 0.813-1.229v-15.442l8.896-10.258c0.429-0.404 0.529-0.888 0.292-1.458-0.238-0.538-0.646-0.808-1.229-0.808v0z" fill="#000000"></path>
</svg>
